<?xml version="1.0" encoding="UTF-8"?>
<svg version="1.1" xmlns="http://www.w3.org/2000/svg" width="192" height="192">
<path d="M0 0 C19.52339402 15.92492629 33.34201517 38.62719968 36 63.984375 C37.41502506 93.3686058 30.9190376 119.41788651 11.07128906 141.74804688 C-4.56579251 158.61845037 -27.29656428 170.98738173 -50.55517578 172.10742188 C-80.05608619 172.93601398 -105.64233853 165.70601413 -127.59375 145.359375 C-144.38162898 129.09378558 -155.54337544 106.06762312 -156.203125 82.578125 C-156.5806173 53.21788028 -148.33368791 27.95807812 -127.671875 6.6328125 C-93.52423122 -27.03612599 -37.60835191 -29.22220664 0 0 Z " fill="#010101" transform="translate(156,20.015625)"/>
<path d="M0 0 C5.61 0 11.22 0 17 0 C17 0.66 17 1.32 17 2 C16.34 2 15.68 2 15 2 C15.4846875 2.969375 15.969375 3.93875 16.46875 4.9375 C16.7889209 5.5780835 17.1090918 6.21866699 17.43896484 6.87866211 C18.15205252 8.30434523 18.86593235 9.7296324 19.58056641 11.15454102 C21.48640703 14.9574569 23.37830042 18.76617038 25.2421875 22.58984375 C25.59990234 23.31880859 25.95761719 24.04777344 26.32617188 24.79882812 C27.01720796 26.20792405 27.70353014 27.61934301 28.38476562 29.03320312 C29.98612507 32.65729116 29.98612507 32.65729116 33 35 C33.26876953 34.29568848 33.53753906 33.59137695 33.81445312 32.86572266 C35.05551547 29.86580713 36.47028832 27.02820671 37.96875 24.1484375 C38.53980469 23.05015625 39.11085938 21.951875 39.69921875 20.8203125 C40.29347656 19.68335937 40.88773437 18.54640625 41.5 17.375 C42.09425781 16.2303125 42.68851562 15.085625 43.30078125 13.90625 C47.73656503 5.39515246 47.73656503 5.39515246 50 2 C49.34 2 48.68 2 48 2 C48 1.34 48 0.68 48 0 C53.61 0 59.22 0 65 0 C65 0.66 65 1.32 65 2 C64.34 2 63.68 2 63 2 C63 19.49 63 36.98 63 55 C65.64 55.33 68.28 55.66 71 56 C87.87468854 59.38029263 102.78034047 66.21634164 118 74 C115.94151959 87.91334348 101.1671024 102.35106715 90.19970703 110.51269531 C68.02196434 126.1652764 42.54232628 132.10826887 15.55078125 128.50390625 C-9.65996922 123.84110287 -31.94351784 109.70817377 -46.96875 89.0234375 C-54 78.55769231 -54 78.55769231 -54 74 C-36.13134299 64.88743053 -18.70323478 57.94064696 1 54 C1.33 36.84 1.66 19.68 2 2 C1.34 2 0.68 2 0 2 C0 1.34 0 0.68 0 0 Z " fill="#B0B0B0" transform="translate(64,63)"/>
<path d="M0 0 C5.61 0 11.22 0 17 0 C17 0.66 17 1.32 17 2 C16.34 2 15.68 2 15 2 C15.4846875 2.969375 15.969375 3.93875 16.46875 4.9375 C16.7889209 5.5780835 17.1090918 6.21866699 17.43896484 6.87866211 C18.15205252 8.30434523 18.86593235 9.7296324 19.58056641 11.15454102 C21.48640703 14.9574569 23.37830042 18.76617038 25.2421875 22.58984375 C25.59990234 23.31880859 25.95761719 24.04777344 26.32617188 24.79882812 C27.01720796 26.20792405 27.70353014 27.61934301 28.38476562 29.03320312 C29.98612507 32.65729116 29.98612507 32.65729116 33 35 C33.26876953 34.29568848 33.53753906 33.59137695 33.81445312 32.86572266 C35.05551547 29.86580713 36.47028832 27.02820671 37.96875 24.1484375 C38.53980469 23.05015625 39.11085938 21.951875 39.69921875 20.8203125 C40.29347656 19.68335937 40.88773437 18.54640625 41.5 17.375 C42.09425781 16.2303125 42.68851562 15.085625 43.30078125 13.90625 C47.73656503 5.39515246 47.73656503 5.39515246 50 2 C49.34 2 48.68 2 48 2 C48 1.34 48 0.68 48 0 C53.61 0 59.22 0 65 0 C65 0.66 65 1.32 65 2 C64.34 2 63.68 2 63 2 C63 19.49 63 36.98 63 55 C65.64 55.33 68.28 55.66 71 56 C72.82585228 56.42546491 74.64233791 56.89699098 76.4375 57.4375 C77.28183594 57.68371094 78.12617188 57.92992187 78.99609375 58.18359375 C81 59 81 59 82 61 C81.34 61 80.68 61 80 61 C80.165 62.093125 80.33 63.18625 80.5 64.3125 C81 68 81 68 81 71 C76.01524107 70.8219729 73.11657409 70.41235276 69.25 67.1875 C59.90933677 59.66055778 49.43549714 59.4375985 38 60 C38.99 58.02 39.98 56.04 41 54 C39.02 54 37.04 54 35 54 C35 53.67 35 53.34 35 53 C40.61 53 46.22 53 52 53 C51.67 42.11 51.34 31.22 51 20 C49.2675 23.526875 49.2675 23.526875 47.5 27.125 C46.38612132 29.34471408 45.26133253 31.55844718 44.13330078 33.77099609 C43.39863128 35.21596218 42.67004663 36.66404457 41.94873047 38.11572266 C40.97048797 40.07079605 39.95947731 42.00500606 38.9375 43.9375 C38.34839844 45.08089844 37.75929688 46.22429687 37.15234375 47.40234375 C35 50 35 50 31.25390625 50.87890625 C30.18011719 50.91886719 29.10632813 50.95882812 28 51 C26.08095109 47.50130124 24.16519979 44.00080705 22.25 40.5 C21.71117188 39.51773438 21.17234375 38.53546875 20.6171875 37.5234375 C19.82441406 36.07324219 19.82441406 36.07324219 19.015625 34.59375 C18.53383789 33.71396484 18.05205078 32.83417969 17.55566406 31.92773438 C15.63826075 28.31921263 13.82744984 24.65489969 12 21 C11.67 38.16 11.34 55.32 11 73 C11.66 73 12.32 73 13 73 C13 73.66 13 74.32 13 75 C8.71 75 4.42 75 0 75 C0.33 73.35 0.66 71.7 1 70 C-0.91731918 70.11455681 -2.8338675 70.24206258 -4.75 70.375 C-6.35101563 70.47941406 -6.35101563 70.47941406 -7.984375 70.5859375 C-10.8823123 70.98384081 -12.44751991 71.69607033 -15 73 C-16.97110196 73.32435855 -18.95240757 73.58920777 -20.9375 73.8125 C-30.16940912 75.12243305 -38.8572681 78.47111213 -47 83 C-47.66 83.99 -48.32 84.98 -49 86 C-49.84114171 84.56705502 -50.67265687 83.12845595 -51.5 81.6875 C-52.19609375 80.48673828 -52.19609375 80.48673828 -52.90625 79.26171875 C-54 77 -54 77 -54 74 C-36.13134299 64.88743053 -18.70323478 57.94064696 1 54 C1.33 36.84 1.66 19.68 2 2 C1.34 2 0.68 2 0 2 C0 1.34 0 0.68 0 0 Z " fill="#F4F4F4" transform="translate(64,63)"/>
<path d="M0 0 C2.55990953 3.4132127 4.41701854 6.52667825 6.35546875 10.296875 C6.66196854 10.89050842 6.96846832 11.48414185 7.28425598 12.09576416 C8.25546607 13.97875001 9.22154834 15.86431216 10.1875 17.75 C10.84796952 19.03272605 11.50877334 20.31528004 12.16992188 21.59765625 C13.7838214 24.72978886 15.39313497 27.86425156 17 31 C20.3930101 30.88530979 20.3930101 30.88530979 24 30 C25.9658876 27.91912615 25.9658876 27.91912615 27.16796875 25.1171875 C27.66876953 24.11429688 28.16957031 23.11140625 28.68554688 22.078125 C29.18119141 21.02109375 29.67683594 19.9640625 30.1875 18.875 C31.20095021 16.80946741 32.21525366 14.74435321 33.23046875 12.6796875 C33.93695557 11.21354004 33.93695557 11.21354004 34.65771484 9.71777344 C36.30291367 6.3866797 38.10441868 3.19398666 40 0 C40.33 0 40.66 0 41 0 C41 11.22 41 22.44 41 34 C37.37 34.33 33.74 34.66 30 35 C29.67 36.32 29.34 37.64 29 39 C28.67 39.33 28.34 39.66 28 40 C28.87140625 39.95359375 29.7428125 39.9071875 30.640625 39.859375 C42.23167504 39.50813106 51.16841097 41.24158104 60.17578125 48.73828125 C63.0588722 50.73236771 65.54523231 50.85605135 69 51 C68.98839844 50.37351563 68.97679687 49.74703125 68.96484375 49.1015625 C68.95582031 48.28429687 68.94679688 47.46703125 68.9375 46.625 C68.92589844 45.81289062 68.91429687 45.00078125 68.90234375 44.1640625 C69 42 69 42 70 40 C83.31950394 42.44190906 95.05208781 48.88958298 107 55 C105.75350106 63.96831706 98.92609848 71.49574558 93 78 C82.60763709 73.33930289 82.60763709 73.33930289 79 68 C77.515 67.01 77.515 67.01 76 66 C76 65.34 76 64.68 76 64 C73.06361777 64.56031273 73.06361777 64.56031273 70 66 C68.08160141 69.0005907 68.08160141 69.0005907 67 72 C66.34 72 65.68 72 65 72 C65 70.68 65 69.36 65 68 C61.7 68 58.4 68 55 68 C54.80083984 66.49759766 54.80083984 66.49759766 54.59765625 64.96484375 C54.41928873 63.62239346 54.2409023 62.27994567 54.0625 60.9375 C53.93198242 59.95233398 53.93198242 59.95233398 53.79882812 58.94726562 C53.22430303 54.62768808 52.62254173 50.31292423 52 46 C36.15607712 44.18926596 21.65963791 45.47150421 6 48 C6.33 49.32 6.66 50.64 7 52 C5.515 52.495 5.515 52.495 4 53 C4 52.34 4 51.68 4 51 C2.68 51 1.36 51 0 51 C0 34.17 0 17.34 0 0 Z " fill="#D4D4D4" transform="translate(75,82)"/>
<path d="M0 0 C0.33 0.99 0.66 1.98 1 3 C2.62332967 4.38576923 4.28724465 5.72641268 6 7 C7.65 6.34 9.3 5.68 11 5 C11 5.66 11 6.32 11 7 C11.99 6.67 12.98 6.34 14 6 C14.33 5.01 14.66 4.02 15 3 C14.34 3 13.68 3 13 3 C13.33 2.01 13.66 1.02 14 0 C28.36325955 -0.93111166 28.36325955 -0.93111166 32.41015625 1.37109375 C33.51043947 2.45633893 34.5795756 3.57464718 35.60546875 4.73046875 C37.10983483 6.39735745 37.10983483 6.39735745 40.4375 5.875 C41.283125 5.58625 42.12875 5.2975 43 5 C43.2475 5.639375 43.495 6.27875 43.75 6.9375 C44.82410942 9.13171217 44.82410942 9.13171217 46.9375 9.9375 C49.11153172 10.22972451 49.11153172 10.22972451 50.75 8.5625 C51.36875 7.7890625 51.36875 7.7890625 52 7 C53 8 53 8 53.0625 10.5625 C53.041875 11.366875 53.02125 12.17125 53 13 C52.34 13.33 51.68 13.66 51 14 C51.928125 14.61875 52.85625 15.2375 53.8125 15.875 C55.875 17.25 57.9375 18.625 60 20 C61.32 20 62.64 20 64 20 C64 20.66 64 21.32 64 22 C64.66 22 65.32 22 66 22 C64.69063102 24.92090003 63.24380538 26.75619462 61 29 C60.505 30.485 60.505 30.485 60 32 C61.32 32.66 62.64 33.32 64 34 C63.67 35.32 63.34 36.64 63 38 C33.107239 39.06058416 9.52956597 28.01383504 -12 8 C-9.59308235 2.54432 -6.02395621 0 0 0 Z " fill="#A2A2A2" transform="translate(37,154)"/>
<path d="M0 0 C0.66 0 1.32 0 2 0 C1.5206753 4.31392226 0.2542015 6.16569547 -3 9 C-1.27773504 12.24849977 -1.27773504 12.24849977 2 13 C2 13.66 2 14.32 2 15 C0.35 15 -1.3 15 -3 15 C-1.16172132 18.15133488 0.75972706 21.11964908 3 24 C0.17011667 26.82988333 -1.86831394 26.23402928 -5.8125 26.3125 C-11.6489093 26.44885834 -11.6489093 26.44885834 -16.3125 29.5 C-16.869375 30.325 -17.42625 31.15 -18 32 C-18.33 32.33 -18.66 32.66 -19 33 C-19.36760731 35.32817964 -19.70241581 37.6618385 -20 40 C-24.43399343 39.49325789 -26.66649455 37.89488631 -30 35 C-30.99 34.34 -31.98 33.68 -33 33 C-32.01 32.67 -31.02 32.34 -30 32 C-30.33 30.35 -30.66 28.7 -31 27 C-31.99 27.99 -32.98 28.98 -34 30 C-37.65316671 28.75023244 -38.78065836 28.32901247 -41 25 C-41.74765625 25.23203125 -42.4953125 25.4640625 -43.265625 25.703125 C-46 26 -46 26 -47.921875 24.671875 C-48.52515625 24.03765625 -49.1284375 23.4034375 -49.75 22.75 C-53.35687897 19.29426643 -56.40840077 17.83387356 -61.21484375 16.60546875 C-63 16 -63 16 -64 14 C-64.33 14.66 -64.66 15.32 -65 16 C-65.66 16 -66.32 16 -67 16 C-67.66 14.68 -68.32 13.36 -69 12 C-71.40877257 12.11341534 -71.40877257 12.11341534 -74 13 C-74.41765625 13.82757813 -74.8353125 14.65515625 -75.265625 15.5078125 C-77 18 -77 18 -79.99609375 18.63671875 C-81.13175781 18.65347656 -82.26742187 18.67023438 -83.4375 18.6875 C-89.00105659 18.79973697 -89.00105659 18.79973697 -94 21 C-91.35298805 14.74342629 -91.35298805 14.74342629 -87.7890625 12.78515625 C-86.06324958 12.12403715 -84.32388059 11.4974842 -82.57421875 10.90234375 C-80.21900082 10.0767666 -78.23009942 9.09511266 -76.0625 7.875 C-69.85111621 4.67481444 -61.94561508 3.30543849 -55 4 C-54.01 4.66 -53.02 5.32 -52 6 C-49.5417707 6.16671852 -49.5417707 6.16671852 -47 6 C-42.63527039 6 -42.16145984 6.31324134 -39 8.9375 C-36.34101664 11.13427727 -34.42065669 12.39680384 -31 13 C-30.34 11.68 -29.68 10.36 -29 9 C-27.68 9 -26.36 9 -25 9 C-24.505 9.99 -24.505 9.99 -24 11 C-21.52733235 10.65555119 -21.52733235 10.65555119 -19 10 C-18.67 9.34 -18.34 8.68 -18 8 C-20.64 8 -23.28 8 -26 8 C-26 6.35 -26 4.7 -26 3 C-23.42183113 1.3142742 -22.12469007 0.99220687 -19 1.1875 C-16 2 -16 2 -14.1328125 3.625 C-12.06639746 5.27708975 -12.06639746 5.27708975 -9.4921875 4.70703125 C-8.62851563 4.41183594 -7.76484375 4.11664063 -6.875 3.8125 C-6.00617188 3.53019531 -5.13734375 3.24789062 -4.2421875 2.95703125 C-1.8537461 2.10225123 -1.8537461 2.10225123 0 0 Z " fill="#CCCCCC" transform="translate(120,135)"/>
<path d="M0 0 C0 6.27 0 12.54 0 19 C-0.495 17.515 -0.495 17.515 -1 16 C-2.91731918 16.11455681 -4.8338675 16.24206258 -6.75 16.375 C-7.81734375 16.44460937 -8.8846875 16.51421875 -9.984375 16.5859375 C-12.8823123 16.98384081 -14.44751991 17.69607033 -17 19 C-18.97110196 19.32435855 -20.95240757 19.58920777 -22.9375 19.8125 C-32.16940912 21.12243305 -40.8572681 24.47111213 -49 29 C-49.66 29.99 -50.32 30.98 -51 32 C-51.84114171 30.56705502 -52.67265687 29.12845595 -53.5 27.6875 C-53.9640625 26.88699219 -54.428125 26.08648437 -54.90625 25.26171875 C-56 23 -56 23 -56 20 C-16.78239609 0 -16.78239609 0 0 0 Z " fill="#DDDEDE" transform="translate(66,117)"/>
<path d="M0 0 C0.33 0 0.66 0 1 0 C1 17.16 1 34.32 1 52 C-2.81876171 53.52750468 -5.91866543 54.49203876 -9.875 55.3125 C-26.03277295 59.00931189 -40.22290925 65.66056395 -55 73 C-57.09807945 70.32255812 -58.39676766 68.37810112 -59 65 C-57.75443908 64.18071114 -56.50333365 63.36984814 -55.25 62.5625 C-54.20585938 61.88380859 -54.20585938 61.88380859 -53.140625 61.19140625 C-51.04814966 60.02679862 -49.33026737 59.48032042 -47 59 C-43.74696513 58.00994591 -40.84755459 56.92228273 -37.8125 55.375 C-35 54 -35 54 -32 54 C-30.35705087 53.4012982 -28.73313308 52.74925592 -27.125 52.0625 C-23.74013546 50.61849816 -20.6147168 49.670711 -17 49 C-15.948125 48.62875 -14.89625 48.2575 -13.8125 47.875 C-11 47 -11 47 -9 48 C-9 47.34 -9 46.68 -9 46 C-6.36 45.67 -3.72 45.34 -1 45 C-0.67 30.15 -0.34 15.3 0 0 Z " fill="#4C4C4C" transform="translate(65,65)"/>
<path d="M0 0 C0.9075 0.639375 1.815 1.27875 2.75 1.9375 C5.48282216 3.67179099 6.9679353 4.37267627 10 5 C10.99 5.66 11.98 6.32 13 7 C13.78375 6.979375 14.5675 6.95875 15.375 6.9375 C18.75213685 7.01790802 20.17633861 8.16133677 23 10 C24.9948244 11.04293724 27.01044364 12.03579138 29.03125 13.02734375 C30.68166028 13.84272502 32.31227108 14.69801653 33.9375 15.5625 C36.40298377 16.71976789 38.66752919 17.56543384 41.25 18.375 C46.44980739 20.03149741 51.18467793 22.4566253 56 25 C55.34 26.98 54.68 28.96 54 31 C53.46221924 30.75354736 52.92443848 30.50709473 52.37036133 30.25317383 C34.46556042 22.06773993 17.12281176 15.75212487 -2 11 C-2 7.7 -2 4.4 -2 1 C-1.34 0.67 -0.68 0.34 0 0 Z " fill="#575757" transform="translate(129,107)"/>
<path d="M0 0 C0.33 0 0.66 0 1 0 C1 11.22 1 22.44 1 34 C-4.61 33.67 -10.22 33.34 -16 33 C-15.12200176 28.61000878 -14.23229351 26.21173671 -12.12890625 22.40234375 C-11.55462891 21.35369141 -10.98035156 20.30503906 -10.38867188 19.22460938 C-9.78603516 18.13986328 -9.18339844 17.05511719 -8.5625 15.9375 C-7.37590315 13.78016729 -6.18968939 11.62262382 -5.00390625 9.46484375 C-4.47611572 8.512146 -3.9483252 7.55944824 -3.40454102 6.57788086 C-2.22086495 4.40537336 -1.08803328 2.22152392 0 0 Z " fill="#0A0A0A" transform="translate(115,82)"/>
<path d="M0 0 C2.54130431 3.38840575 4.4133376 6.49251727 6.35546875 10.2265625 C6.66196854 10.81545258 6.96846832 11.40434265 7.28425598 12.01107788 C7.92723307 13.24896092 8.56837208 14.48780024 9.20776367 15.72753906 C10.18940653 17.62869239 11.17927423 19.52540131 12.16992188 21.421875 C12.7947687 22.62734623 13.41913472 23.83306683 14.04296875 25.0390625 C14.61039795 26.13428223 15.17782715 27.22950195 15.76245117 28.35791016 C17 31 17 31 17 33 C8.585 33.495 8.585 33.495 0 34 C0 22.78 0 11.56 0 0 Z " fill="#0B0C0C" transform="translate(75,82)"/>
<path d="M0 0 C0.495 1.98 0.495 1.98 1 4 C-0.05316406 4.23074219 -1.10632812 4.46148437 -2.19140625 4.69921875 C-20.75397034 8.85051465 -36.99313649 15.55308786 -54 24 C-54.66 23.01 -55.32 22.02 -56 21 C-53.39939496 19.65929682 -50.79495084 18.32726646 -48.1875 17 C-47.44951172 16.6184375 -46.71152344 16.236875 -45.95117188 15.84375 C-45.23896484 15.4828125 -44.52675781 15.121875 -43.79296875 14.75 C-43.1383667 14.41484375 -42.48376465 14.0796875 -41.80932617 13.734375 C-40 13 -40 13 -37 13 C-37 12.34 -37 11.68 -37 11 C-34 9 -34 9 -31 9 C-31 8.34 -31 7.68 -31 7 C-20.88929799 2.66447802 -11.0857152 -0.22415968 0 0 Z " fill="#424242" transform="translate(64,114)"/>
<path d="M0 0 C1.67542976 0.28604898 3.34385343 0.61781233 5 1 C5.33 2.32 5.66 3.64 6 5 C6.66 5 7.32 5 8 5 C8.33 4.01 8.66 3.02 9 2 C9.33 2.99 9.66 3.98 10 5 C12.10584438 5.80563638 12.10584438 5.80563638 14.5625 6.1875 C15.38878906 6.34605469 16.21507813 6.50460938 17.06640625 6.66796875 C17.70449219 6.77753906 18.34257813 6.88710937 19 7 C18.67 7.66 18.34 8.32 18 9 C13.38 9 8.76 9 4 9 C3.67 9.66 3.34 10.32 3 11 C3.66 11 4.32 11 5 11 C4.67 12.32 4.34 13.64 4 15 C3.4225 14.79375 2.845 14.5875 2.25 14.375 C-0.51967567 13.91338739 -1.64561267 14.57055055 -4 16 C-5.98 14.35 -7.96 12.7 -10 11 C-9.67 9.68 -9.34 8.36 -9 7 C-7.8553125 6.9071875 -7.8553125 6.9071875 -6.6875 6.8125 C-3.78150152 6.23616528 -3.78150152 6.23616528 -2.25 3.5 C-1.8375 2.675 -1.425 1.85 -1 1 C-0.67 0.67 -0.34 0.34 0 0 Z " fill="#A8A8A8" transform="translate(47,146)"/>
<path d="M0 0 C1.42944945 2.35438733 2.08661261 3.48032433 1.625 6.25 C1.41875 6.8275 1.2125 7.405 1 8 C1 7.01 1 6.02 1 5 C-0.91731918 5.11455681 -2.8338675 5.24206258 -4.75 5.375 C-6.35101563 5.47941406 -6.35101563 5.47941406 -7.984375 5.5859375 C-10.8823123 5.98384081 -12.44751991 6.69607033 -15 8 C-16.97110196 8.32435855 -18.95240757 8.58920777 -20.9375 8.8125 C-30.16940912 10.12243305 -38.8572681 13.47111213 -47 18 C-47.66 18.99 -48.32 19.98 -49 21 C-49.99 19.02 -50.98 17.04 -52 15 C-47.31155472 11.85987245 -42.9227354 10.99121222 -37.44921875 9.94140625 C-34.60730436 9.16575351 -32.73870063 8.38840751 -30.21484375 7.00390625 C-25.57951696 4.57640758 -21.02513437 3.97726459 -15.875 3.375 C-10.3559217 2.6861403 -5.23235189 2.0071645 0 0 Z " fill="#CBCBCB" transform="translate(64,128)"/>
<path d="M0 0 C0 0.66 0 1.32 0 2 C4.95 2 9.9 2 15 2 C15 2.33 15 2.66 15 3 C13.48019531 3.05607422 13.48019531 3.05607422 11.9296875 3.11328125 C10.57809061 3.17898388 9.22652971 3.24542971 7.875 3.3125 C6.87726563 3.34633789 6.87726563 3.34633789 5.859375 3.38085938 C1.17778298 3.63329816 -1.88631228 4.8753481 -6 7 C-8.7734375 7.29296875 -8.7734375 7.29296875 -11.375 7.1875 C-12.24898437 7.16042969 -13.12296875 7.13335937 -14.0234375 7.10546875 C-15.00183594 7.05326172 -15.00183594 7.05326172 -16 7 C-16 8.65 -16 10.3 -16 12 C-22.875 11.125 -22.875 11.125 -24 10 C-24.04092937 7.66702567 -24.04241723 5.33294775 -24 3 C-20.37529707 2.4978304 -16.7501911 1.99863223 -13.125 1.5 C-12.09246094 1.35691406 -11.05992188 1.21382813 -9.99609375 1.06640625 C-9.00996094 0.93105469 -8.02382812 0.79570313 -7.0078125 0.65625 C-6.09660645 0.53056641 -5.18540039 0.40488281 -4.24658203 0.27539062 C-2 0 -2 0 0 0 Z " fill="#DBDBDB" transform="translate(99,113)"/>
<path d="M0 0 C0.9075 0.639375 1.815 1.27875 2.75 1.9375 C5.48282216 3.67179099 6.9679353 4.37267627 10 5 C10.99 5.66 11.98 6.32 13 7 C13.78375 6.979375 14.5675 6.95875 15.375 6.9375 C18.75213685 7.01790802 20.17633861 8.16133677 23 10 C25.0974546 11.03877732 27.20826999 12.04296847 29.328125 13.03515625 C31 14 31 14 32 16 C27.57585522 15.60674269 23.90056891 14.66436949 19.75 13.0625 C15.00629529 11.25662069 10.41703553 10.18353874 5.41015625 9.39453125 C3.23082707 9.03778531 1.13236195 8.56895969 -1 8 C-1.33 8.66 -1.66 9.32 -2 10 C-2 7.03 -2 4.06 -2 1 C-1.34 0.67 -0.68 0.34 0 0 Z " fill="#393939" transform="translate(129,107)"/>
<path d="M0 0 C1.32 1.32 2.64 2.64 4 4 C2.02 4.66 0.04 5.32 -2 6 C-2 6.66 -2 7.32 -2 8 C-4.76317623 9.37021794 -7.53658478 10.71830176 -10.3125 12.0625 C-11.09818359 12.45244141 -11.88386719 12.84238281 -12.69335938 13.24414062 C-13.8293457 13.79038086 -13.8293457 13.79038086 -14.98828125 14.34765625 C-15.68477783 14.68804932 -16.38127441 15.02844238 -17.09887695 15.37915039 C-19 16 -19 16 -22 15 C-22.6875 12.9375 -22.6875 12.9375 -23 11 C-21.75443908 10.18071114 -20.50333365 9.36984814 -19.25 8.5625 C-18.55390625 8.11003906 -17.8578125 7.65757813 -17.140625 7.19140625 C-15.04747229 6.02642162 -13.33127717 5.47954989 -11 5 C-6.93288426 3.78851872 -3.56509158 2.30682397 0 0 Z " fill="#373737" transform="translate(29,119)"/>
<path d="M0 0 C2.87760072 3.40080085 3.46951823 5.40855469 5 10 C-3.415 10.495 -3.415 10.495 -12 11 C-12 8.03 -12 5.06 -12 2 C-10.4221875 1.7834375 -10.4221875 1.7834375 -8.8125 1.5625 C-5.84539451 1.12473034 -2.93205634 0.62195134 0 0 Z " fill="#3A3A3A" transform="translate(87,105)"/>
<path d="M0 0 C4.27343092 -0.36629408 6.48812804 0.59185923 10 3 C9.01 4.485 9.01 4.485 8 6 C4.875 6.1875 4.875 6.1875 2 6 C2 6.66 2 7.32 2 8 C2.721875 8.061875 3.44375 8.12375 4.1875 8.1875 C7.84657625 9.24456647 9.49211602 11.20550071 12 14 C11.67 14.99 11.34 15.98 11 17 C10.484375 16.731875 9.96875 16.46375 9.4375 16.1875 C6.84459019 14.8608631 6.84459019 14.8608631 3.3125 13.75 C0 12 0 12 -1 9.1875 C-1 5.99649335 -0.66797975 3.11723885 0 0 Z " fill="#E2E2E2" transform="translate(149,124)"/>
<path d="M0 0 C1.81546807 3.85786966 2.09380477 6.76705996 2 11 C-0.41575607 11.50478485 -2.83244361 12.00397642 -5.25 12.5 C-5.93191406 12.64308594 -6.61382812 12.78617188 -7.31640625 12.93359375 C-10.64633121 13.61251049 -13.58332551 14 -17 14 C-17 12.68 -17 11.36 -17 10 C-16.38511719 10.08378906 -15.77023438 10.16757813 -15.13671875 10.25390625 C-14.32847656 10.35574219 -13.52023438 10.45757812 -12.6875 10.5625 C-11.88699219 10.66691406 -11.08648437 10.77132812 -10.26171875 10.87890625 C-7.83182884 11.14755178 -7.83182884 11.14755178 -5 10 C-5.3403125 8.63875 -5.3403125 8.63875 -5.6875 7.25 C-6 4 -6 4 -4.75 1.625 C-3 0 -3 0 0 0 Z " fill="#898989" transform="translate(121,178)"/>
<path d="M0 0 C6.49142565 0.42335385 11.33492989 2.91099799 17 6 C16.34 7.98 15.68 9.96 15 12 C10.05 9.69 5.1 7.38 0 5 C0 3.35 0 1.7 0 0 Z " fill="#4A4A4A" transform="translate(168,126)"/>
<path d="M0 0 C1.65 0 3.3 0 5 0 C3.55218207 3.44428265 1.72305391 5.36130962 -1.125 7.75 C-2.21167969 8.67039063 -2.21167969 8.67039063 -3.3203125 9.609375 C-4.15175781 10.29773438 -4.15175781 10.29773438 -5 11 C-7.82914839 10.26532365 -10.46032588 9.46581614 -13 8 C-14 4.8125 -14 4.8125 -14 2 C-9.6822542 2.50797009 -5.96697886 3.19682779 -2 5 C-1.34 3.35 -0.68 1.7 0 0 Z " fill="#CECECE" transform="translate(161,161)"/>
<path d="M0 0 C0.66 0.99 1.32 1.98 2 3 C0.94683594 3.23074219 -0.10632812 3.46148437 -1.19140625 3.69921875 C-9.95949718 5.66597938 -18.44118092 7.98648804 -26.92578125 10.94921875 C-29.28271717 11.75482963 -31.57376703 12.45484642 -34 13 C-33.67 12.01 -33.34 11.02 -33 10 C-30.65851641 8.85669747 -28.44282417 7.9330566 -26 7.0625 C-25.29681641 6.80452637 -24.59363281 6.54655273 -23.86914062 6.28076172 C-16.07509712 3.51707506 -8.08153482 1.70032292 0 0 Z " fill="#525252" transform="translate(63,115)"/>
<path d="M0 0 C0.33 0 0.66 0 1 0 C1 11.22 1 22.44 1 34 C-4.61 33.67 -10.22 33.34 -16 33 C-15 28 -15 28 -13 26 C-12.67 26.99 -12.34 27.98 -12 29 C-8.04 29.33 -4.08 29.66 0 30 C-0.05329468 28.69011108 -0.05329468 28.69011108 -0.10766602 27.35375977 C-0.23662253 24.12424949 -0.36097912 20.89460491 -0.48217773 17.66479492 C-0.53566026 16.26498319 -0.59099434 14.86524096 -0.64819336 13.46557617 C-0.72992949 11.4577104 -0.80453025 9.44955813 -0.87890625 7.44140625 C-0.9260376 6.23170166 -0.97316895 5.02199707 -1.02172852 3.77563477 C-1 1 -1 1 0 0 Z " fill="#505050" transform="translate(115,82)"/>
<path d="M0 0 C1.6256807 0.30893932 3.25052748 0.6222695 4.875 0.9375 C5.77992187 1.11152344 6.68484375 1.28554687 7.6171875 1.46484375 C10 2 10 2 12 3 C12 4.32 12 5.64 12 7 C7.38 7 2.76 7 -2 7 C-1.34 4.69 -0.68 2.38 0 0 Z " fill="#2C2C2C" transform="translate(103,105)"/>
<path d="M0 0 C2.625 0.375 2.625 0.375 5 1 C5.33 2.32 5.66 3.64 6 5 C6.66 5 7.32 5 8 5 C8.33 4.01 8.66 3.02 9 2 C9.33 2.99 9.66 3.98 10 5 C12.10584438 5.80563638 12.10584438 5.80563638 14.5625 6.1875 C15.38878906 6.34605469 16.21507813 6.50460938 17.06640625 6.66796875 C17.70449219 6.77753906 18.34257813 6.88710937 19 7 C18.67 7.66 18.34 8.32 18 9 C15.51979503 8.88658509 13.04155031 8.75985314 10.5625 8.625 C9.85544922 8.5940625 9.14839844 8.563125 8.41992188 8.53125 C6.60760812 8.42719371 4.80182012 8.22080108 3 8 C2.67 7.34 2.34 6.68 2 6 C2.9375 3.875 2.9375 3.875 4 2 C0.73045798 2.56371414 -0.82575883 3.49962266 -3 6 C-2.42655063 3.13275314 -2.1385485 2.1385485 0 0 Z " fill="#B4B4B4" transform="translate(47,146)"/>
<path d="M0 0 C3 3.75 3 3.75 3 6 C-5.415 6.495 -5.415 6.495 -14 7 C-14 5.35 -14 3.7 -14 2 C-7.07 2.495 -7.07 2.495 0 3 C0 2.01 0 1.02 0 0 Z " fill="#545454" transform="translate(89,109)"/>
<path d="M0 0 C1 3 1 3 -0.25 5.625 C-2 8 -2 8 -5 9 C-8 7 -8 7 -8.6875 4.375 C-8.790625 3.59125 -8.89375 2.8075 -9 2 C-5.86501708 0.14223235 -3.62528568 -0.20140476 0 0 Z " fill="#8D8D8D" transform="translate(115,173)"/>
<path d="M0 0 C-3.58211445 3.00048246 -7.53012116 4.77698774 -11.75 6.6875 C-12.44738281 7.00783203 -13.14476562 7.32816406 -13.86328125 7.65820312 C-15.57357208 8.44306261 -17.28652507 9.22211648 -19 10 C-19.33 9.01 -19.66 8.02 -20 7 C-17.42362412 5.63092584 -14.84031896 4.27971545 -12.25 2.9375 C-11.52039062 2.54755859 -10.79078125 2.15761719 -10.0390625 1.75585938 C-9.33007812 1.39169922 -8.62109375 1.02753906 -7.890625 0.65234375 C-7.24125977 0.31195068 -6.59189453 -0.02844238 -5.92285156 -0.37915039 C-3.58008982 -1.13558044 -2.29543427 -0.78821819 0 0 Z " fill="#585858" transform="translate(28,128)"/>
<path d="M0 0 C0.66 0.33 1.32 0.66 2 1 C-2.75 5 -2.75 5 -5 5 C-5.33 5.99 -5.66 6.98 -6 8 C-10.33333333 11 -10.33333333 11 -13 11 C-13.33 9.68 -13.66 8.36 -14 7 C-12.75443908 6.18071114 -11.50333365 5.36984814 -10.25 4.5625 C-9.55390625 4.11003906 -8.8578125 3.65757813 -8.140625 3.19140625 C-6.05746842 2.03198516 -4.31353345 1.50061753 -2 1 C-1.34 0.67 -0.68 0.34 0 0 Z " fill="#2A2A2A" transform="translate(20,123)"/>
<path d="M0 0 C-0.99 0.33 -1.98 0.66 -3 1 C-3 1.66 -3 2.32 -3 3 C-0.69 3.33 1.62 3.66 4 4 C4 4.33 4 4.66 4 5 C3.10796875 5.04898438 2.2159375 5.09796875 1.296875 5.1484375 C0.12640625 5.22320312 -1.0440625 5.29796875 -2.25 5.375 C-3.99023438 5.47941406 -3.99023438 5.47941406 -5.765625 5.5859375 C-8.70694334 5.96248308 -10.49949011 6.4774123 -13 8 C-9.8239367 1.40356083 -9.8239367 1.40356083 -5.9375 -0.5 C-3 -1 -3 -1 0 0 Z " fill="#C5C5C5" transform="translate(39,148)"/>
<path d="M0 0 C0.9075 0.639375 1.815 1.27875 2.75 1.9375 C5.51253694 3.69064844 6.97924352 4.27085189 10 5 C11.75 6.5625 11.75 6.5625 13 8 C11.7934375 7.7525 11.7934375 7.7525 10.5625 7.5 C6.34112648 6.90752652 2.25335455 6.91493291 -2 7 C-2 5.02 -2 3.04 -2 1 C-1.34 0.67 -0.68 0.34 0 0 Z " fill="#2A2A2A" transform="translate(129,107)"/>
<path d="M0 0 C3.73487777 0.4979837 5.81237635 0.87491756 9 3 C8.34 4.32 7.68 5.64 7 7 C4.625 6.6875 4.625 6.6875 2 6 C0 3 0 3 0 0 Z " fill="#DDDDDD" transform="translate(62,142)"/>
<path d="M0 0 C-2.79791324 1.86527549 -4.75747672 2.64913993 -7.9375 3.5625 C-8.79214844 3.81128906 -9.64679687 4.06007813 -10.52734375 4.31640625 C-12.67818414 4.91103037 -14.83201845 5.47183744 -17 6 C-16 3 -16 3 -13.92578125 1.796875 C-5.27893696 -1.66703273 -5.27893696 -1.66703273 0 0 Z " fill="#5C5C5C" transform="translate(46,122)"/>
<path d="M0 0 C4.16149336 0.55486578 5.82799298 2.45990012 8.8125 5.375 C8.8125 6.035 8.8125 6.695 8.8125 7.375 C7.37153414 6.94905412 5.93481288 6.50873367 4.5 6.0625 C3.69949219 5.81886719 2.89898437 5.57523438 2.07421875 5.32421875 C-0.28714573 4.33317977 -1.52629993 3.29425057 -3.1875 1.375 C-2.1875 0.375 -2.1875 0.375 0 0 Z " fill="#828282" transform="translate(56.1875,179.625)"/>
<path d="M0 0 C3.63 0.66 7.26 1.32 11 2 C11 2.66 11 3.32 11 4 C7.78548731 5.60725635 4.56387464 5.05748185 1 5 C0.67 3.35 0.34 1.7 0 0 Z " fill="#C1C1C1" transform="translate(135,139)"/>
<path d="M0 0 C1.2065625 0.0309375 1.2065625 0.0309375 2.4375 0.0625 C-0.80116621 2.22161081 -4.16119892 3.99167168 -7.625 5.75 C-8.26244141 6.08322266 -8.89988281 6.41644531 -9.55664062 6.75976562 C-11.19492239 7.59012762 -12.87669223 8.33344559 -14.5625 9.0625 C-15.2225 8.7325 -15.8825 8.4025 -16.5625 8.0625 C-14.16498782 5.28392628 -11.85500217 4.20287252 -8.4375 2.9375 C-0.62196602 0.0151699 -0.62196602 0.0151699 0 0 Z " fill="#434343" transform="translate(24.5625,125.9375)"/>
<path d="M0 0 C0.33 1.32 0.66 2.64 1 4 C-4.94 4.495 -4.94 4.495 -11 5 C-11 4.34 -11 3.68 -11 3 C-7.37 2.01 -3.74 1.02 0 0 Z " fill="#232323" transform="translate(87,105)"/>
<path d="M0 0 C2.31 0 4.62 0 7 0 C6.67 0.99 6.34 1.98 6 3 C4.35 3.33 2.7 3.66 1 4 C0.67 2.68 0.34 1.36 0 0 Z " fill="#BCBCBC" transform="translate(95,143)"/>
<path d="M0 0 C4.875 2.625 4.875 2.625 6 6 C4.35 5.67 2.7 5.34 1 5 C0.67 3.35 0.34 1.7 0 0 Z " fill="#E3E3E3" transform="translate(163,142)"/>
<path d="M0 0 C-6.4 3.07692308 -6.4 3.07692308 -9.4375 2.6875 C-9.953125 2.460625 -10.46875 2.23375 -11 2 C-6.99642627 -0.14477164 -4.43233175 -1.47744392 0 0 Z " fill="#292929" transform="translate(53,114)"/>
<path d="M0 0 C0 1.32 0 2.64 0 4 C-1.98 4.66 -3.96 5.32 -6 6 C-5.6875 4.125 -5.6875 4.125 -5 2 C-2 0 -2 0 0 0 Z " fill="#DDDDDD" transform="translate(100,158)"/>
<path d="M0 0 C3.68754757 0.49831724 5.60490662 1.10067643 8 4 C5 5 5 5 2.3125 3.6875 C1.549375 3.130625 0.78625 2.57375 0 2 C0 1.34 0 0.68 0 0 Z " fill="#E4E4E4" transform="translate(169,132)"/>
<path d="M0 0 C0.66 0.66 1.32 1.32 2 2 C5.09926819 1.67801034 5.09926819 1.67801034 8 1 C8 1.99 8 2.98 8 4 C5.69 4.33 3.38 4.66 1 5 C0.67 3.35 0.34 1.7 0 0 Z " fill="#313131" transform="translate(75,107)"/>
<path d="M0 0 C0.598125 0.20625 1.19625 0.4125 1.8125 0.625 C0.1625 2.275 -1.4875 3.925 -3.1875 5.625 C-3.8475 4.305 -4.5075 2.985 -5.1875 1.625 C-2.1875 -0.375 -2.1875 -0.375 0 0 Z " fill="#C7C7C7" transform="translate(24.1875,151.375)"/>
<path d="M0 0 C2.31 0.33 4.62 0.66 7 1 C7 1.66 7 2.32 7 3 C4.36 3 1.72 3 -1 3 C-0.67 2.01 -0.34 1.02 0 0 Z " fill="#525252" transform="translate(128,115)"/>
<path d="M0 0 C0.66 0.99 1.32 1.98 2 3 C-0.64 3.33 -3.28 3.66 -6 4 C-5.67 3.01 -5.34 2.02 -5 1 C-3.35 0.67 -1.7 0.34 0 0 Z " fill="#595959" transform="translate(63,115)"/>
<path d="M0 0 C3.3 0.66 6.6 1.32 10 2 C10 2.33 10 2.66 10 3 C6.37 3 2.74 3 -1 3 C-0.67 2.01 -0.34 1.02 0 0 Z " fill="#2C2C2C" transform="translate(104,107)"/>
<path d="M0 0 C0.99 0.33 1.98 0.66 3 1 C2.01 1.495 2.01 1.495 1 2 C1.33 3.32 1.66 4.64 2 6 C1.01 6.33 0.02 6.66 -1 7 C-1 6.34 -1 5.68 -1 5 C-2.32 4.67 -3.64 4.34 -5 4 C-3.68 4 -2.36 4 -1 4 C-0.67 2.68 -0.34 1.36 0 0 Z " fill="#C7C7C7" transform="translate(80,128)"/>
<path d="M0 0 C0.66 0.66 1.32 1.32 2 2 C-0.3125 3.5625 -0.3125 3.5625 -3 5 C-3.99 4.67 -4.98 4.34 -6 4 C-4.02 2.68 -2.04 1.36 0 0 Z " fill="#282828" transform="translate(29,119)"/>
<path d="M0 0 C1.65 1.65 3.3 3.3 5 5 C4.21625 4.814375 3.4325 4.62875 2.625 4.4375 C0.02910225 3.74037734 0.02910225 3.74037734 -2 5 C-2 3.68 -2 2.36 -2 1 C-1.34 0.67 -0.68 0.34 0 0 Z " fill="#1B1B1B" transform="translate(129,107)"/>
<path d="M0 0 C2.97 0.495 2.97 0.495 6 1 C6 1.99 6 2.98 6 4 C3.83125748 3.49396008 2.00032373 3.00016187 0 2 C0 1.34 0 0.68 0 0 Z " fill="#AFAFAF" transform="translate(38,156)"/>
<path d="M0 0 C0 0.99 0 1.98 0 3 C-2.64 3 -5.28 3 -8 3 C-8 2.34 -8 1.68 -8 1 C-5.07175348 0.02391783 -3.04386724 -0.08226668 0 0 Z " fill="#252525" transform="translate(64,110)"/>
</svg>
