<?xml version="1.0" encoding="UTF-8"?>
<!DOCTYPE svg PUBLIC "-//W3C//DTD SVG 1.1//EN" "http://www.w3.org/Graphics/SVG/1.1/DTD/svg11.dtd">
<svg xmlns="http://www.w3.org/2000/svg" version="1.1" width="500px" height="500px" style="shape-rendering:geometricPrecision; text-rendering:geometricPrecision; image-rendering:optimizeQuality; fill-rule:evenodd; clip-rule:evenodd" xmlns:xlink="http://www.w3.org/1999/xlink">
<g><path style="opacity:1" fill="#000000" d="M -0.5,-0.5 C 166.167,-0.5 332.833,-0.5 499.5,-0.5C 499.5,109.167 499.5,218.833 499.5,328.5C 446.599,297.865 389.932,277.531 329.5,267.5C 329.5,235.833 329.5,204.167 329.5,172.5C 329.5,169.167 331.167,167.5 334.5,167.5C 335.404,166.791 335.737,165.791 335.5,164.5C 320.324,164.171 305.324,164.504 290.5,165.5C 291.641,167.088 293.141,168.421 295,169.5C 295.667,170.5 295.667,171.5 295,172.5C 279.921,200.993 264.588,229.326 249,257.5C 234.333,229.5 219.667,201.5 205,173.5C 204.333,172.167 204.333,170.833 205,169.5C 207.118,168.717 208.618,167.384 209.5,165.5C 194.676,164.504 179.676,164.171 164.5,164.5C 164.263,165.791 164.596,166.791 165.5,167.5C 167.38,167.229 168.713,167.896 169.5,169.5C 169.5,202.167 169.5,234.833 169.5,267.5C 109.064,277.533 52.3971,297.866 -0.5,328.5C -0.5,218.833 -0.5,109.167 -0.5,-0.5 Z"/></g>
<g><path style="opacity:1" fill="#9f9f9f" d="M 209.5,165.5 C 194.462,164.85 179.795,165.517 165.5,167.5C 164.596,166.791 164.263,165.791 164.5,164.5C 179.676,164.171 194.676,164.504 209.5,165.5 Z"/></g>
<g><path style="opacity:1" fill="#9f9f9f" d="M 290.5,165.5 C 305.324,164.504 320.324,164.171 335.5,164.5C 335.737,165.791 335.404,166.791 334.5,167.5C 320.205,165.517 305.538,164.85 290.5,165.5 Z"/></g>
<g><path style="opacity:1" fill="#fdfdfd" d="M 209.5,165.5 C 208.618,167.384 207.118,168.717 205,169.5C 204.333,170.833 204.333,172.167 205,173.5C 219.667,201.5 234.333,229.5 249,257.5C 264.588,229.326 279.921,200.993 295,172.5C 295.667,171.5 295.667,170.5 295,169.5C 293.141,168.421 291.641,167.088 290.5,165.5C 305.538,164.85 320.205,165.517 334.5,167.5C 331.167,167.5 329.5,169.167 329.5,172.5C 328.667,211.331 328.167,250.331 328,289.5C 319.115,287.541 310.282,286.208 301.5,285.5C 301.667,260.831 301.5,236.164 301,211.5C 300.283,212.044 299.783,212.711 299.5,213.5C 289.418,233.332 279.085,252.999 268.5,272.5C 254.368,272.367 240.368,272.367 226.5,272.5C 216.756,252.677 206.756,233.011 196.5,213.5C 196.217,212.711 195.717,212.044 195,211.5C 194.501,215.486 194.334,219.486 194.5,223.5C 193.167,266.167 193.167,308.833 194.5,351.5C 195.129,354.129 196.795,355.796 199.5,356.5C 188.167,357.833 176.833,357.833 165.5,356.5C 167.193,355.772 168.693,354.772 170,353.5C 170.498,350.518 170.665,347.518 170.5,344.5C 170.5,340.5 170.5,336.5 170.5,332.5C 170.5,323.5 170.5,314.5 170.5,305.5C 170.5,303.5 170.5,301.5 170.5,299.5C 170.5,294.5 170.5,289.5 170.5,284.5C 170.832,245.996 170.499,207.663 169.5,169.5C 168.713,167.896 167.38,167.229 165.5,167.5C 179.795,165.517 194.462,164.85 209.5,165.5 Z"/></g>
<g><path style="opacity:1" fill="#949494" d="M 301.5,285.5 C 301.821,291.026 301.488,296.36 300.5,301.5C 300.5,299.167 300.5,296.833 300.5,294.5C 300.5,291.833 300.5,289.167 300.5,286.5C 300.5,283.167 300.5,279.833 300.5,276.5C 300.831,255.327 300.497,234.327 299.5,213.5C 299.783,212.711 300.283,212.044 301,211.5C 301.5,236.164 301.667,260.831 301.5,285.5 Z"/></g>
<g><path style="opacity:1" fill="#080808" d="M 196.5,213.5 C 206.756,233.011 216.756,252.677 226.5,272.5C 227.441,274.05 228.107,275.716 228.5,277.5C 217.481,278.279 206.481,279.279 195.5,280.5C 195.169,257.994 195.503,235.66 196.5,213.5 Z"/></g>
<g><path style="opacity:1" fill="#080808" d="M 299.5,213.5 C 300.497,234.327 300.831,255.327 300.5,276.5C 289.856,275.502 279.189,274.835 268.5,274.5C 268.5,273.833 268.5,273.167 268.5,272.5C 279.085,252.999 289.418,233.332 299.5,213.5 Z"/></g>
<g><path style="opacity:1" fill="#0d0d0d" d="M 169.5,267.5 C 170.065,272.322 169.399,276.822 167.5,281C 107.313,291.446 51.3127,312.613 -0.5,344.5C -0.5,339.167 -0.5,333.833 -0.5,328.5C 52.3971,297.866 109.064,277.533 169.5,267.5 Z"/></g>
<g><path style="opacity:1" fill="#0b0b0b" d="M 329.5,267.5 C 389.932,277.531 446.599,297.865 499.5,328.5C 499.5,332.5 499.5,336.5 499.5,340.5C 446.874,308.844 390.207,287.844 329.5,277.5C 329.5,274.167 329.5,270.833 329.5,267.5 Z"/></g>
<g><path style="opacity:1" fill="#1e1e1e" d="M 169.5,169.5 C 170.499,207.663 170.832,245.996 170.5,284.5C 169.662,284.842 169.328,285.508 169.5,286.5C 108.487,297.165 51.8204,318.832 -0.5,351.5C -0.5,349.167 -0.5,346.833 -0.5,344.5C 51.3127,312.613 107.313,291.446 167.5,281C 169.399,276.822 170.065,272.322 169.5,267.5C 169.5,234.833 169.5,202.167 169.5,169.5 Z"/></g>
<g><path style="opacity:1" fill="#191919" d="M 329.5,277.5 C 390.207,287.844 446.874,308.844 499.5,340.5C 499.5,343.167 499.5,345.833 499.5,348.5C 447.154,315.937 390.488,294.604 329.5,284.5C 329.5,282.167 329.5,279.833 329.5,277.5 Z"/></g>
<g><path style="opacity:1" fill="#262626" d="M 329.5,284.5 C 390.488,294.604 447.154,315.937 499.5,348.5C 499.5,350.167 499.5,351.833 499.5,353.5C 446.997,321.261 390.331,299.594 329.5,288.5C 329.5,287.167 329.5,285.833 329.5,284.5 Z"/></g>
<g><path style="opacity:1" fill="#2c2c2c" d="M 169.5,286.5 C 169.5,288.167 169.5,289.833 169.5,291.5C 108.364,301.763 51.6974,323.43 -0.5,356.5C -0.5,354.833 -0.5,353.167 -0.5,351.5C 51.8204,318.832 108.487,297.165 169.5,286.5 Z"/></g>
<g><path style="opacity:1" fill="#323232" d="M 329.5,288.5 C 390.331,299.594 446.997,321.261 499.5,353.5C 499.5,355.167 499.5,356.833 499.5,358.5C 447.16,325.826 390.493,304.159 329.5,293.5C 329.5,291.833 329.5,290.167 329.5,288.5 Z"/></g>
<g><path style="opacity:1" fill="#393939" d="M 169.5,291.5 C 169.5,292.833 169.5,294.167 169.5,295.5C 108.188,305.93 51.5217,327.93 -0.5,361.5C -0.5,359.833 -0.5,358.167 -0.5,356.5C 51.6974,323.43 108.364,301.763 169.5,291.5 Z"/></g>
<g><path style="opacity:1" fill="#3f3f3f" d="M 329.5,293.5 C 390.493,304.159 447.16,325.826 499.5,358.5C 499.5,360.167 499.5,361.833 499.5,363.5C 447.284,330.199 390.617,307.866 329.5,296.5C 329.5,295.5 329.5,294.5 329.5,293.5 Z"/></g>
<g><path style="opacity:1" fill="#454545" d="M 169.5,295.5 C 169.67,296.822 169.337,297.989 168.5,299C 107.65,310.106 51.3168,332.273 -0.5,365.5C -0.5,364.167 -0.5,362.833 -0.5,361.5C 51.5217,327.93 108.188,305.93 169.5,295.5 Z"/></g>
<g><path style="opacity:1" fill="#606060" d="M 196.5,213.5 C 195.503,235.66 195.169,257.994 195.5,280.5C 195.5,283.5 195.5,286.5 195.5,289.5C 195.5,291.833 195.5,294.167 195.5,296.5C 205.825,295.779 216.159,295.112 226.5,294.5C 230.239,294.486 233.572,293.82 236.5,292.5C 237.737,293.965 238.737,295.632 239.5,297.5C 224.694,299.309 209.694,300.642 194.5,301.5C 194.5,275.5 194.5,249.5 194.5,223.5C 194.334,219.486 194.501,215.486 195,211.5C 195.717,212.044 196.217,212.711 196.5,213.5 Z"/></g>
<g><path style="opacity:1" fill="#4d4d4d" d="M 329.5,296.5 C 390.617,307.866 447.284,330.199 499.5,363.5C 499.5,365.5 499.5,367.5 499.5,369.5C 447.331,336.094 390.664,313.761 329.5,302.5C 329.5,300.5 329.5,298.5 329.5,296.5 Z"/></g>
<g><path style="opacity:1" fill="#545454" d="M 170.5,284.5 C 170.5,289.5 170.5,294.5 170.5,299.5C 169.549,300.919 169.216,302.585 169.5,304.5C 108.13,315.196 51.4632,337.529 -0.5,371.5C -0.5,369.5 -0.5,367.5 -0.5,365.5C 51.3168,332.273 107.65,310.106 168.5,299C 169.337,297.989 169.67,296.822 169.5,295.5C 169.5,294.167 169.5,292.833 169.5,291.5C 169.5,289.833 169.5,288.167 169.5,286.5C 169.328,285.508 169.662,284.842 170.5,284.5 Z"/></g>
<g><path style="opacity:1" fill="#e4e5e5" d="M 329.5,172.5 C 329.5,204.167 329.5,235.833 329.5,267.5C 329.5,270.833 329.5,274.167 329.5,277.5C 329.5,279.833 329.5,282.167 329.5,284.5C 329.5,285.833 329.5,287.167 329.5,288.5C 329.5,290.167 329.5,291.833 329.5,293.5C 329.5,294.5 329.5,295.5 329.5,296.5C 329.5,298.5 329.5,300.5 329.5,302.5C 329.33,303.822 329.663,304.989 330.5,306C 335.702,306.869 340.702,308.036 345.5,309.5C 356.612,313.037 367.778,316.703 379,320.5C 379.167,320.833 379.333,321.167 379.5,321.5C 377.49,322.065 375.824,323.065 374.5,324.5C 376.33,326.975 377.664,329.641 378.5,332.5C 376.54,337.334 375.707,342.334 376,347.5C 376.75,348.126 377.584,348.626 378.5,349C 374.074,348.47 369.74,347.304 365.5,345.5C 363.809,347.256 361.809,347.756 359.5,347C 352.833,341.667 346.167,336.333 339.5,331C 324.433,323.867 308.599,319.367 292,317.5C 282.867,318.872 273.701,319.372 264.5,319C 263.483,317.951 263.316,316.784 264,315.5C 266.07,313.213 268.57,311.547 271.5,310.5C 272.583,309.635 272.749,308.635 272,307.5C 264.77,304.683 257.27,303.849 249.5,305C 246.783,308.688 243.116,310.688 238.5,311C 231.089,311.108 223.755,311.775 216.5,313C 215.106,313.956 214.439,315.289 214.5,317C 214.963,319.389 215.63,321.723 216.5,324C 216.095,324.945 215.428,325.612 214.5,326C 210.764,326.61 207.097,326.277 203.5,325C 200.688,323.023 198.022,320.856 195.5,318.5C 194.502,327.141 194.169,335.808 194.5,344.5C 194.5,346.833 194.5,349.167 194.5,351.5C 193.167,308.833 193.167,266.167 194.5,223.5C 194.5,249.5 194.5,275.5 194.5,301.5C 227.988,300.461 261.655,300.461 295.5,301.5C 297.167,301.5 298.833,301.5 300.5,301.5C 301.488,296.36 301.821,291.026 301.5,285.5C 310.282,286.208 319.115,287.541 328,289.5C 328.167,250.331 328.667,211.331 329.5,172.5 Z"/></g>
<g><path style="opacity:1" fill="#cacaca" d="M 239.5,297.5 C 244.74,298.449 250.073,298.782 255.5,298.5C 269.038,298.761 282.371,299.761 295.5,301.5C 261.655,300.461 227.988,300.461 194.5,301.5C 209.694,300.642 224.694,299.309 239.5,297.5 Z"/></g>
<g><path style="opacity:1" fill="#5a5a5a" d="M 259.5,291.5 C 273.022,292.407 286.689,293.407 300.5,294.5C 300.5,296.833 300.5,299.167 300.5,301.5C 298.833,301.5 297.167,301.5 295.5,301.5C 282.371,299.761 269.038,298.761 255.5,298.5C 256.596,295.968 257.929,293.635 259.5,291.5 Z"/></g>
<g><path style="opacity:1" fill="#484848" d="M 232.5,284.5 C 234.341,286.849 235.674,289.515 236.5,292.5C 233.572,293.82 230.239,294.486 226.5,294.5C 216.159,295.112 205.825,295.779 195.5,296.5C 195.5,294.167 195.5,291.833 195.5,289.5C 205.462,288.337 215.462,287.504 225.5,287C 228.361,287.03 230.695,286.197 232.5,284.5 Z"/></g>
<g><path style="opacity:1" fill="#424242" d="M 263.5,283.5 C 275.651,284.917 287.985,285.917 300.5,286.5C 300.5,289.167 300.5,291.833 300.5,294.5C 286.689,293.407 273.022,292.407 259.5,291.5C 260.326,288.515 261.659,285.849 263.5,283.5 Z"/></g>
<g><path style="opacity:1" fill="#2f2f2f" d="M 228.5,277.5 C 230.588,279.336 231.921,281.669 232.5,284.5C 230.695,286.197 228.361,287.03 225.5,287C 215.462,287.504 205.462,288.337 195.5,289.5C 195.5,286.5 195.5,283.5 195.5,280.5C 206.481,279.279 217.481,278.279 228.5,277.5 Z"/></g>
<g><path style="opacity:1" fill="#282828" d="M 268.5,274.5 C 279.189,274.835 289.856,275.502 300.5,276.5C 300.5,279.833 300.5,283.167 300.5,286.5C 287.985,285.917 275.651,284.917 263.5,283.5C 264.917,280.331 266.583,277.331 268.5,274.5 Z"/></g>
<g><path style="opacity:1" fill="#f1f1f1" d="M 268.5,272.5 C 268.5,273.167 268.5,273.833 268.5,274.5C 266.583,277.331 264.917,280.331 263.5,283.5C 261.659,285.849 260.326,288.515 259.5,291.5C 257.929,293.635 256.596,295.968 255.5,298.5C 250.073,298.782 244.74,298.449 239.5,297.5C 238.737,295.632 237.737,293.965 236.5,292.5C 235.674,289.515 234.341,286.849 232.5,284.5C 231.921,281.669 230.588,279.336 228.5,277.5C 228.107,275.716 227.441,274.05 226.5,272.5C 240.368,272.367 254.368,272.367 268.5,272.5 Z"/></g>
<g><path style="opacity:1" fill="#5f5f5f" d="M 329.5,302.5 C 390.664,313.761 447.331,336.094 499.5,369.5C 499.5,370.833 499.5,372.167 499.5,373.5C 452.378,342.28 401.045,320.946 345.5,309.5C 340.702,308.036 335.702,306.869 330.5,306C 329.663,304.989 329.33,303.822 329.5,302.5 Z"/></g>
<g><path style="opacity:1" fill="#636363" d="M 170.5,299.5 C 170.5,301.5 170.5,303.5 170.5,305.5C 108.863,316.817 51.8627,339.483 -0.5,373.5C -0.5,372.833 -0.5,372.167 -0.5,371.5C 51.4632,337.529 108.13,315.196 169.5,304.5C 169.216,302.585 169.549,300.919 170.5,299.5 Z"/></g>
<g><path style="opacity:1" fill="#d6d6d6" d="M 345.5,309.5 C 401.045,320.946 452.378,342.28 499.5,373.5C 499.5,378.5 499.5,383.5 499.5,388.5C 495.702,385.204 492.036,381.704 488.5,378C 487.391,377.362 486.225,376.862 485,376.5C 482.512,378.769 480.012,381.103 477.5,383.5C 474.173,381.593 470.84,380.093 467.5,379C 466.234,382.509 466.401,386.009 468,389.5C 472.061,394.719 475.894,400.052 479.5,405.5C 477.252,409.851 474.086,410.518 470,407.5C 466.738,401.967 463.238,396.634 459.5,391.5C 449.873,386.368 439.539,383.535 428.5,383C 425.909,380.167 422.909,377.834 419.5,376C 390.806,365.187 362.139,354.687 333.5,344.5C 332.85,340.545 331.517,336.712 329.5,333C 311.477,325.562 292.811,323.562 273.5,327C 259.737,328.819 246.07,331.153 232.5,334C 223.84,334.5 215.173,334.666 206.5,334.5C 206.336,337.187 206.503,339.854 207,342.5C 208.896,343.68 210.396,345.18 211.5,347C 210.615,349.157 208.948,349.99 206.5,349.5C 206.67,348.178 206.337,347.011 205.5,346C 201.94,344.763 198.273,344.263 194.5,344.5C 194.169,335.808 194.502,327.141 195.5,318.5C 198.022,320.856 200.688,323.023 203.5,325C 207.097,326.277 210.764,326.61 214.5,326C 215.428,325.612 216.095,324.945 216.5,324C 215.63,321.723 214.963,319.389 214.5,317C 214.439,315.289 215.106,313.956 216.5,313C 223.755,311.775 231.089,311.108 238.5,311C 243.116,310.688 246.783,308.688 249.5,305C 257.27,303.849 264.77,304.683 272,307.5C 272.749,308.635 272.583,309.635 271.5,310.5C 268.57,311.547 266.07,313.213 264,315.5C 263.316,316.784 263.483,317.951 264.5,319C 273.701,319.372 282.867,318.872 292,317.5C 308.599,319.367 324.433,323.867 339.5,331C 346.167,336.333 352.833,341.667 359.5,347C 361.809,347.756 363.809,347.256 365.5,345.5C 369.74,347.304 374.074,348.47 378.5,349C 377.584,348.626 376.75,348.126 376,347.5C 375.707,342.334 376.54,337.334 378.5,332.5C 377.664,329.641 376.33,326.975 374.5,324.5C 375.824,323.065 377.49,322.065 379.5,321.5C 379.333,321.167 379.167,320.833 379,320.5C 367.778,316.703 356.612,313.037 345.5,309.5 Z"/></g>
<g><path style="opacity:1" fill="#dddddd" d="M 170.5,305.5 C 170.5,314.5 170.5,323.5 170.5,332.5C 149.169,339.891 127.169,344.391 104.5,346C 98.596,347.136 93.2626,349.469 88.5,353C 82.4958,354.581 76.8292,356.914 71.5,360C 52.1916,361.659 34.8583,368.326 19.5,380C 16.2835,381.637 12.9502,382.97 9.5,384C 6.29747,387.371 2.96414,390.538 -0.5,393.5C -0.5,386.833 -0.5,380.167 -0.5,373.5C 51.8627,339.483 108.863,316.817 170.5,305.5 Z"/></g>
<g><path style="opacity:1" fill="#e4e4e4" d="M 386.5,322.5 C 395.129,324.067 402.963,327.401 410,332.5C 410.684,333.784 410.517,334.951 409.5,336C 405.167,336.333 400.833,336.667 396.5,337C 394.668,337.748 393.001,338.748 391.5,340C 397.281,343.707 403.281,347.04 409.5,350C 413.383,352.869 416.05,356.535 417.5,361C 416.472,365.206 413.805,366.539 409.5,365C 408.072,362.815 406.405,360.815 404.5,359C 397.153,358.077 390.986,354.91 386,349.5C 385.654,347.782 385.154,346.115 384.5,344.5C 385.248,342.668 386.248,341.001 387.5,339.5C 386.687,338.186 385.687,337.019 384.5,336C 386.684,333.984 388.684,331.817 390.5,329.5C 389.111,327.132 387.778,324.799 386.5,322.5 Z"/></g>
<g><path style="opacity:1" fill="#bbbbbb" d="M 333.5,344.5 C 334.297,351.986 335.797,359.319 338,366.5C 338.333,373.833 338.667,381.167 339,388.5C 340.473,390.007 342.307,390.674 344.5,390.5C 350.993,388.302 357.659,387.468 364.5,388C 365.944,389.126 366.61,390.626 366.5,392.5C 365.905,395.14 365.572,397.807 365.5,400.5C 368.642,400.201 370.809,398.534 372,395.5C 373.29,391.27 373.79,386.936 373.5,382.5C 378.984,383.174 383.984,382.008 388.5,379C 393.596,378.428 395.429,380.595 394,385.5C 395.826,387.074 397.993,387.907 400.5,388C 405.306,392.626 409.639,397.626 413.5,403C 418.851,406.072 424.518,408.406 430.5,410C 432,411.5 433.5,413 435,414.5C 435.684,415.784 435.517,416.951 434.5,418C 429.386,418.109 424.386,418.776 419.5,420C 418.789,421.255 417.956,422.421 417,423.5C 417.038,427.332 416.205,430.832 414.5,434C 411.793,434.328 409.126,433.995 406.5,433C 399.963,427.126 392.463,424.626 384,425.5C 382.572,437.746 388.072,444.246 400.5,445C 411.716,451.882 420.549,461.049 427,472.5C 434.482,476.645 439.815,482.645 443,490.5C 443.498,493.482 443.665,496.482 443.5,499.5C 439.833,499.5 436.167,499.5 432.5,499.5C 429.28,492.729 425.78,486.063 422,479.5C 419.944,474.665 418.277,469.665 417,464.5C 413.833,461.333 410.667,458.167 407.5,455C 399.251,450.293 391.084,445.459 383,440.5C 379.419,430.532 375.085,420.866 370,411.5C 367.656,409.434 365.323,407.434 363,405.5C 359.844,407.986 356.678,410.486 353.5,413C 347.563,415.931 345.73,414.431 348,408.5C 353.649,406.857 355.982,403.19 355,397.5C 354.586,397.043 354.086,396.709 353.5,396.5C 352.548,398.045 352.215,399.712 352.5,401.5C 344.875,400.359 337.875,397.526 331.5,393C 326.331,391.705 321.831,392.872 318,396.5C 315.174,401.87 316.674,405.203 322.5,406.5C 323.959,408.583 325.292,410.75 326.5,413C 332.408,415.044 338.241,417.211 344,419.5C 344.711,421.367 344.211,422.867 342.5,424C 340.112,425.861 337.446,427.194 334.5,428C 320.033,425.375 305.367,423.875 290.5,423.5C 285.833,423.667 281.167,423.833 276.5,424C 273.203,426.184 269.87,428.017 266.5,429.5C 269.054,425.781 272.387,422.948 276.5,421C 287.125,419.822 297.791,419.155 308.5,419C 311.696,418.604 314.53,417.438 317,415.5C 317.667,413.833 317.667,412.167 317,410.5C 313.965,407.13 310.632,404.13 307,401.5C 300.775,392.191 303.275,388.024 314.5,389C 317.167,387.667 317.167,386.333 314.5,385C 307.588,383.422 303.255,379.089 301.5,372C 301.759,370.739 302.426,369.739 303.5,369C 312.362,365.977 316.696,359.81 316.5,350.5C 315.127,350.343 313.793,350.51 312.5,351C 311.324,353.686 309.657,356.019 307.5,358C 298.548,360.021 289.881,362.855 281.5,366.5C 280.062,366.281 278.729,365.781 277.5,365C 269.961,354.045 260.294,351.712 248.5,358C 244.329,361.854 243.496,366.354 246,371.5C 252.104,372.284 258.271,372.45 264.5,372C 266.028,374.881 265.362,377.214 262.5,379C 259.691,380.658 256.691,381.825 253.5,382.5C 250.089,380.597 247.089,378.097 244.5,375C 237.17,374.988 232.837,378.655 231.5,386C 226.389,387.111 221.722,386.111 217.5,383C 210.103,376.226 202.27,370.059 194,364.5C 192.04,365.292 190.54,366.625 189.5,368.5C 186.038,370.391 182.372,370.891 178.5,370C 175.228,368.392 172.228,366.392 169.5,364C 167.091,363.065 164.591,362.565 162,362.5C 145.294,363.607 129.127,366.941 113.5,372.5C 103.948,368.224 94.281,364.224 84.5,360.5C 99.1545,354.602 114.488,351.435 130.5,351C 133.833,349.667 137.167,348.333 140.5,347C 150.472,345.784 160.472,344.951 170.5,344.5C 170.665,347.518 170.498,350.518 170,353.5C 168.693,354.772 167.193,355.772 165.5,356.5C 176.833,357.833 188.167,357.833 199.5,356.5C 196.795,355.796 195.129,354.129 194.5,351.5C 194.5,349.167 194.5,346.833 194.5,344.5C 198.273,344.263 201.94,344.763 205.5,346C 206.337,347.011 206.67,348.178 206.5,349.5C 208.948,349.99 210.615,349.157 211.5,347C 210.396,345.18 208.896,343.68 207,342.5C 206.503,339.854 206.336,337.187 206.5,334.5C 215.173,334.666 223.84,334.5 232.5,334C 246.07,331.153 259.737,328.819 273.5,327C 292.811,323.562 311.477,325.562 329.5,333C 331.517,336.712 332.85,340.545 333.5,344.5 Z"/></g>
<g><path style="opacity:1" fill="#d0d0d0" d="M 333.5,344.5 C 362.139,354.687 390.806,365.187 419.5,376C 422.909,377.834 425.909,380.167 428.5,383C 439.539,383.535 449.873,386.368 459.5,391.5C 452.092,396.24 444.592,400.906 437,405.5C 436.333,406.833 436.333,408.167 437,409.5C 444.712,414.706 446.212,421.206 441.5,429C 438.975,429.041 436.642,428.207 434.5,426.5C 431.002,427.186 429.835,429.186 431,432.5C 434.37,434.674 436.203,437.674 436.5,441.5C 433.289,441.012 430.456,441.679 428,443.5C 426.759,454.444 429.926,463.944 437.5,472C 441.046,473.174 444.713,473.84 448.5,474C 449.774,475.221 451.274,476.054 453,476.5C 459.581,470.898 465.748,471.398 471.5,478C 472.833,478.667 474.167,478.667 475.5,478C 478.966,474.534 481.633,470.534 483.5,466C 481.693,462.22 480.026,458.387 478.5,454.5C 481.4,448.067 485.566,447.067 491,451.5C 491.119,455.01 492.286,458.01 494.5,460.5C 496.401,458.994 498.068,457.327 499.5,455.5C 499.5,470.167 499.5,484.833 499.5,499.5C 495.167,499.5 490.833,499.5 486.5,499.5C 483.323,492.973 478.656,487.806 472.5,484C 469.5,483.333 466.5,483.333 463.5,484C 462.299,484.903 461.465,486.069 461,487.5C 460.55,491.188 460.717,494.854 461.5,498.5C 458.941,498.198 456.607,498.532 454.5,499.5C 450.833,499.5 447.167,499.5 443.5,499.5C 443.665,496.482 443.498,493.482 443,490.5C 439.815,482.645 434.482,476.645 427,472.5C 420.549,461.049 411.716,451.882 400.5,445C 388.072,444.246 382.572,437.746 384,425.5C 392.463,424.626 399.963,427.126 406.5,433C 409.126,433.995 411.793,434.328 414.5,434C 416.205,430.832 417.038,427.332 417,423.5C 417.956,422.421 418.789,421.255 419.5,420C 424.386,418.776 429.386,418.109 434.5,418C 435.517,416.951 435.684,415.784 435,414.5C 433.5,413 432,411.5 430.5,410C 424.518,408.406 418.851,406.072 413.5,403C 409.639,397.626 405.306,392.626 400.5,388C 397.993,387.907 395.826,387.074 394,385.5C 395.429,380.595 393.596,378.428 388.5,379C 383.984,382.008 378.984,383.174 373.5,382.5C 373.79,386.936 373.29,391.27 372,395.5C 370.809,398.534 368.642,400.201 365.5,400.5C 365.572,397.807 365.905,395.14 366.5,392.5C 366.61,390.626 365.944,389.126 364.5,388C 357.659,387.468 350.993,388.302 344.5,390.5C 342.307,390.674 340.473,390.007 339,388.5C 338.667,381.167 338.333,373.833 338,366.5C 335.797,359.319 334.297,351.986 333.5,344.5 Z"/></g>
<g><path style="opacity:1" fill="#b1b1b1" d="M 84.5,360.5 C 94.281,364.224 103.948,368.224 113.5,372.5C 107.861,375.989 102.195,379.489 96.5,383C 90.2006,385.126 83.8673,387.126 77.5,389C 76.3692,395.748 73.0359,401.081 67.5,405C 68.5,405.667 69.5,405.667 70.5,405C 74.3643,401.568 78.6977,398.901 83.5,397C 93.1667,396.667 102.833,396.333 112.5,396C 114.235,384.614 120.901,379.614 132.5,381C 137.627,383.812 138.627,387.645 135.5,392.5C 136.723,393.614 138.056,393.781 139.5,393C 140.777,390.079 142.11,387.245 143.5,384.5C 144.914,385.624 146.414,386.624 148,387.5C 148.795,389.901 149.962,392.068 151.5,394C 159.587,396.417 167.587,399.084 175.5,402C 180.955,408.461 187.288,413.794 194.5,418C 196.167,418.667 197.833,418.667 199.5,418C 202.48,415.676 205.813,414.176 209.5,413.5C 208.899,422.732 213.232,427.232 222.5,427C 225.214,424.57 226.881,421.57 227.5,418C 231.091,417.55 233.591,419.05 235,422.5C 235.667,425.833 235.667,429.167 235,432.5C 233.56,434.046 231.727,434.879 229.5,435C 226.997,436.784 226.997,438.451 229.5,440C 232.623,440.206 235.623,440.873 238.5,442C 243.1,447.292 248.433,451.625 254.5,455C 256.112,455.72 257.612,455.554 259,454.5C 260.124,448.897 260.79,443.231 261,437.5C 262.596,434.631 264.43,431.964 266.5,429.5C 269.87,428.017 273.203,426.184 276.5,424C 281.167,423.833 285.833,423.667 290.5,423.5C 305.367,423.875 320.033,425.375 334.5,428C 337.446,427.194 340.112,425.861 342.5,424C 344.211,422.867 344.711,421.367 344,419.5C 338.241,417.211 332.408,415.044 326.5,413C 325.292,410.75 323.959,408.583 322.5,406.5C 316.674,405.203 315.174,401.87 318,396.5C 321.831,392.872 326.331,391.705 331.5,393C 337.875,397.526 344.875,400.359 352.5,401.5C 352.215,399.712 352.548,398.045 353.5,396.5C 354.086,396.709 354.586,397.043 355,397.5C 355.982,403.19 353.649,406.857 348,408.5C 345.73,414.431 347.563,415.931 353.5,413C 356.678,410.486 359.844,407.986 363,405.5C 365.323,407.434 367.656,409.434 370,411.5C 375.085,420.866 379.419,430.532 383,440.5C 391.084,445.459 399.251,450.293 407.5,455C 410.667,458.167 413.833,461.333 417,464.5C 418.277,469.665 419.944,474.665 422,479.5C 425.78,486.063 429.28,492.729 432.5,499.5C 431.5,499.5 430.5,499.5 429.5,499.5C 427.645,497.967 425.812,496.3 424,494.5C 423.06,489.952 421.06,485.952 418,482.5C 416.014,476.683 415.014,470.683 415,464.5C 403.908,456.245 392.408,448.578 380.5,441.5C 375.203,436.24 372.037,429.907 371,422.5C 363.53,412.892 356.53,413.225 350,423.5C 349.689,425.556 349.189,427.556 348.5,429.5C 340.818,430.104 333.318,432.104 326,435.5C 318.17,431.555 310.004,428.388 301.5,426C 294.548,424.603 287.548,424.27 280.5,425C 276.022,429.147 271.855,433.647 268,438.5C 266.241,441.608 265.408,444.941 265.5,448.5C 264.681,451.305 264.181,454.305 264,457.5C 260.026,463.472 255.36,468.805 250,473.5C 247.013,471.846 244.679,469.513 243,466.5C 242.881,461.718 242.215,457.051 241,452.5C 238.772,450.032 235.938,448.865 232.5,449C 231.5,448 230.5,447 229.5,446C 226.5,445.667 223.5,445.333 220.5,445C 218.618,442.022 217.118,438.855 216,435.5C 214.604,433.473 212.938,433.14 211,434.5C 209.961,436.746 208.794,438.913 207.5,441C 198.234,442.756 189.567,446.089 181.5,451C 179.5,451.667 177.5,451.667 175.5,451C 174.39,448.263 174.223,445.429 175,442.5C 176.546,437.232 177.879,431.899 179,426.5C 180.441,425.13 182.108,424.13 184,423.5C 187.282,425.123 190.282,427.123 193,429.5C 194.434,429.07 195.601,428.236 196.5,427C 189.522,419.691 182.189,412.691 174.5,406C 171.952,403.558 168.952,401.892 165.5,401C 154.456,400.38 143.456,399.547 132.5,398.5C 127.246,399.918 121.912,400.918 116.5,401.5C 106.539,400.004 96.5391,399.504 86.5,400C 79.8666,404.321 73.1999,408.654 66.5,413C 62.6544,413.111 58.9878,412.277 55.5,410.5C 57.1099,404.356 60.6099,399.356 66,395.5C 66.4828,394.552 66.6495,393.552 66.5,392.5C 64.1432,392.337 61.8098,392.503 59.5,393C 56.9708,395.029 54.3041,396.862 51.5,398.5C 44.3355,394.167 41.5021,387.833 43,379.5C 44.1667,378.333 45.3333,377.167 46.5,376C 53.0394,373.379 59.3727,370.379 65.5,367C 71.7566,364.526 78.0899,362.359 84.5,360.5 Z"/></g>
<g><path style="opacity:1" fill="#cdcdcd" d="M 266.5,429.5 C 264.43,431.964 262.596,434.631 261,437.5C 260.79,443.231 260.124,448.897 259,454.5C 257.612,455.554 256.112,455.72 254.5,455C 248.433,451.625 243.1,447.292 238.5,442C 235.623,440.873 232.623,440.206 229.5,440C 226.997,438.451 226.997,436.784 229.5,435C 231.727,434.879 233.56,434.046 235,432.5C 235.667,429.167 235.667,425.833 235,422.5C 233.591,419.05 231.091,417.55 227.5,418C 226.881,421.57 225.214,424.57 222.5,427C 213.232,427.232 208.899,422.732 209.5,413.5C 205.813,414.176 202.48,415.676 199.5,418C 197.833,418.667 196.167,418.667 194.5,418C 187.288,413.794 180.955,408.461 175.5,402C 167.587,399.084 159.587,396.417 151.5,394C 149.962,392.068 148.795,389.901 148,387.5C 146.414,386.624 144.914,385.624 143.5,384.5C 142.11,387.245 140.777,390.079 139.5,393C 138.056,393.781 136.723,393.614 135.5,392.5C 138.627,387.645 137.627,383.812 132.5,381C 120.901,379.614 114.235,384.614 112.5,396C 102.833,396.333 93.1667,396.667 83.5,397C 78.6977,398.901 74.3643,401.568 70.5,405C 69.5,405.667 68.5,405.667 67.5,405C 73.0359,401.081 76.3692,395.748 77.5,389C 83.8673,387.126 90.2006,385.126 96.5,383C 102.195,379.489 107.861,375.989 113.5,372.5C 129.127,366.941 145.294,363.607 162,362.5C 164.591,362.565 167.091,363.065 169.5,364C 172.228,366.392 175.228,368.392 178.5,370C 182.372,370.891 186.038,370.391 189.5,368.5C 190.54,366.625 192.04,365.292 194,364.5C 202.27,370.059 210.103,376.226 217.5,383C 221.722,386.111 226.389,387.111 231.5,386C 232.837,378.655 237.17,374.988 244.5,375C 247.089,378.097 250.089,380.597 253.5,382.5C 256.691,381.825 259.691,380.658 262.5,379C 265.362,377.214 266.028,374.881 264.5,372C 258.271,372.45 252.104,372.284 246,371.5C 243.496,366.354 244.329,361.854 248.5,358C 260.294,351.712 269.961,354.045 277.5,365C 278.729,365.781 280.062,366.281 281.5,366.5C 289.881,362.855 298.548,360.021 307.5,358C 309.657,356.019 311.324,353.686 312.5,351C 313.793,350.51 315.127,350.343 316.5,350.5C 316.696,359.81 312.362,365.977 303.5,369C 302.426,369.739 301.759,370.739 301.5,372C 303.255,379.089 307.588,383.422 314.5,385C 317.167,386.333 317.167,387.667 314.5,389C 303.275,388.024 300.775,392.191 307,401.5C 310.632,404.13 313.965,407.13 317,410.5C 317.667,412.167 317.667,413.833 317,415.5C 314.53,417.438 311.696,418.604 308.5,419C 297.791,419.155 287.125,419.822 276.5,421C 272.387,422.948 269.054,425.781 266.5,429.5 Z"/></g>
<g><path style="opacity:1" fill="#dedede" d="M 162.5,368.5 C 170.052,370.359 176.885,373.693 183,378.5C 183.135,383.7 180.468,386.367 175,386.5C 168.692,385.533 164.025,382.2 161,376.5C 160.282,373.593 160.782,370.926 162.5,368.5 Z"/></g>
<g><path style="opacity:1" fill="#e1e1e1" d="M 499.5,388.5 C 499.5,410.833 499.5,433.167 499.5,455.5C 498.068,457.327 496.401,458.994 494.5,460.5C 492.286,458.01 491.119,455.01 491,451.5C 485.566,447.067 481.4,448.067 478.5,454.5C 480.026,458.387 481.693,462.22 483.5,466C 481.633,470.534 478.966,474.534 475.5,478C 474.167,478.667 472.833,478.667 471.5,478C 465.748,471.398 459.581,470.898 453,476.5C 451.274,476.054 449.774,475.221 448.5,474C 444.713,473.84 441.046,473.174 437.5,472C 429.926,463.944 426.759,454.444 428,443.5C 430.456,441.679 433.289,441.012 436.5,441.5C 436.203,437.674 434.37,434.674 431,432.5C 429.835,429.186 431.002,427.186 434.5,426.5C 436.642,428.207 438.975,429.041 441.5,429C 446.212,421.206 444.712,414.706 437,409.5C 436.333,408.167 436.333,406.833 437,405.5C 444.592,400.906 452.092,396.24 459.5,391.5C 463.238,396.634 466.738,401.967 470,407.5C 474.086,410.518 477.252,409.851 479.5,405.5C 475.894,400.052 472.061,394.719 468,389.5C 466.401,386.009 466.234,382.509 467.5,379C 470.84,380.093 474.173,381.593 477.5,383.5C 480.012,381.103 482.512,378.769 485,376.5C 486.225,376.862 487.391,377.362 488.5,378C 492.036,381.704 495.702,385.204 499.5,388.5 Z"/></g>
<g><path style="opacity:1" fill="#c7c7c7" d="M 170.5,332.5 C 170.5,336.5 170.5,340.5 170.5,344.5C 160.472,344.951 150.472,345.784 140.5,347C 137.167,348.333 133.833,349.667 130.5,351C 114.488,351.435 99.1545,354.602 84.5,360.5C 78.0899,362.359 71.7566,364.526 65.5,367C 59.3727,370.379 53.0394,373.379 46.5,376C 45.3333,377.167 44.1667,378.333 43,379.5C 41.5021,387.833 44.3355,394.167 51.5,398.5C 54.3041,396.862 56.9708,395.029 59.5,393C 61.8098,392.503 64.1432,392.337 66.5,392.5C 66.6495,393.552 66.4828,394.552 66,395.5C 60.6099,399.356 57.1099,404.356 55.5,410.5C 55.616,415.102 53.9493,418.935 50.5,422C 42.861,423.037 35.1944,424.037 27.5,425C 19.1121,433.235 9.7788,440.069 -0.5,445.5C -0.5,437.5 -0.5,429.5 -0.5,421.5C 10.3467,415.16 20.5133,407.827 30,399.5C 30.49,398.207 30.6567,396.873 30.5,395.5C 26.204,394.537 21.8706,394.371 17.5,395C 11.373,396.875 5.37305,399.042 -0.5,401.5C -0.5,398.833 -0.5,396.167 -0.5,393.5C 2.96414,390.538 6.29747,387.371 9.5,384C 12.9502,382.97 16.2835,381.637 19.5,380C 34.8583,368.326 52.1916,361.659 71.5,360C 76.8292,356.914 82.4958,354.581 88.5,353C 93.2626,349.469 98.596,347.136 104.5,346C 127.169,344.391 149.169,339.891 170.5,332.5 Z"/></g>
<g><path style="opacity:1" fill="#ababab" d="M -0.5,421.5 C -0.5,414.833 -0.5,408.167 -0.5,401.5C 5.37305,399.042 11.373,396.875 17.5,395C 21.8706,394.371 26.204,394.537 30.5,395.5C 30.6567,396.873 30.49,398.207 30,399.5C 20.5133,407.827 10.3467,415.16 -0.5,421.5 Z"/></g>
<g><path style="opacity:1" fill="#a5a5a5" d="M 265.5,448.5 C 266.092,451.127 266.425,453.794 266.5,456.5C 266.579,459.271 266.079,461.937 265,464.5C 260.37,465.13 257.703,467.796 257,472.5C 254.872,475.63 252.372,478.463 249.5,481C 254.263,483.798 258.763,486.964 263,490.5C 264.549,493.312 265.382,496.312 265.5,499.5C 263.833,499.5 262.167,499.5 260.5,499.5C 260.756,497.208 260.423,495.041 259.5,493C 254.685,489.398 249.351,487.398 243.5,487C 242.289,489.9 240.289,491.566 237.5,492C 235.843,486.244 234.343,480.411 233,474.5C 229.434,472.755 225.601,471.589 221.5,471C 220.667,470.167 219.833,469.333 219,468.5C 217.601,460.105 212.935,454.438 205,451.5C 203.775,451.862 202.609,452.362 201.5,453C 198.5,456.667 195.5,460.333 192.5,464C 195.977,467.567 199.644,470.9 203.5,474C 198.958,480.21 193.458,485.376 187,489.5C 186.112,496.107 188.945,499.44 195.5,499.5C 185.5,499.5 175.5,499.5 165.5,499.5C 166.75,497.068 168.25,494.734 170,492.5C 174.638,488.865 178.138,484.365 180.5,479C 179.796,469.595 176.129,461.595 169.5,455C 167.359,454.116 165.693,454.616 164.5,456.5C 168.255,461.571 169.422,467.237 168,473.5C 163.01,473.695 160.177,471.028 159.5,465.5C 157.742,460.14 158.409,455.14 161.5,450.5C 159.345,450.162 157.011,450.162 154.5,450.5C 154.34,448.801 154.506,447.134 155,445.5C 162.559,437.173 164.893,427.506 162,416.5C 155.91,413.042 150.744,408.542 146.5,403C 142.289,401.466 137.956,401.133 133.5,402C 130.606,402.869 129.439,404.702 130,407.5C 137.048,409.084 138.215,412.584 133.5,418C 128.769,419.274 124.935,418.107 122,414.5C 119.354,417.062 116.688,419.728 114,422.5C 107.484,419.244 101.484,415.244 96,410.5C 97.0334,403.532 94.2001,400.699 87.5,402C 83.3443,404.124 80.8443,407.29 80,411.5C 82.3954,413.081 82.8954,415.081 81.5,417.5C 79.2906,418.106 77.124,418.773 75,419.5C 70.7392,418.672 66.7392,418.005 63,417.5C 56.5665,421.598 51.0665,426.765 46.5,433C 38.6326,434.93 30.6326,436.263 22.5,437C 14.4571,440.559 6.79042,444.726 -0.5,449.5C -0.5,448.167 -0.5,446.833 -0.5,445.5C 9.7788,440.069 19.1121,433.235 27.5,425C 35.1944,424.037 42.861,423.037 50.5,422C 53.9493,418.935 55.616,415.102 55.5,410.5C 58.9878,412.277 62.6544,413.111 66.5,413C 73.1999,408.654 79.8666,404.321 86.5,400C 96.5391,399.504 106.539,400.004 116.5,401.5C 121.912,400.918 127.246,399.918 132.5,398.5C 143.456,399.547 154.456,400.38 165.5,401C 168.952,401.892 171.952,403.558 174.5,406C 182.189,412.691 189.522,419.691 196.5,427C 195.601,428.236 194.434,429.07 193,429.5C 190.282,427.123 187.282,425.123 184,423.5C 182.108,424.13 180.441,425.13 179,426.5C 177.879,431.899 176.546,437.232 175,442.5C 174.223,445.429 174.39,448.263 175.5,451C 177.5,451.667 179.5,451.667 181.5,451C 189.567,446.089 198.234,442.756 207.5,441C 208.794,438.913 209.961,436.746 211,434.5C 212.938,433.14 214.604,433.473 216,435.5C 217.118,438.855 218.618,442.022 220.5,445C 223.5,445.333 226.5,445.667 229.5,446C 230.5,447 231.5,448 232.5,449C 235.938,448.865 238.772,450.032 241,452.5C 242.215,457.051 242.881,461.718 243,466.5C 244.679,469.513 247.013,471.846 250,473.5C 255.36,468.805 260.026,463.472 264,457.5C 264.181,454.305 264.681,451.305 265.5,448.5 Z"/></g>
<g><path style="opacity:1" fill="#999999" d="M 159.5,465.5 C 158.733,464.828 158.066,463.995 157.5,463C 123.823,450.494 90.1568,437.994 56.5,425.5C 52.4967,430.003 48.1633,434.17 43.5,438C 27.43,438.523 12.7634,443.357 -0.5,452.5C -0.5,451.5 -0.5,450.5 -0.5,449.5C 6.79042,444.726 14.4571,440.559 22.5,437C 30.6326,436.263 38.6326,434.93 46.5,433C 51.0665,426.765 56.5665,421.598 63,417.5C 66.7392,418.005 70.7392,418.672 75,419.5C 77.124,418.773 79.2906,418.106 81.5,417.5C 82.8954,415.081 82.3954,413.081 80,411.5C 80.8443,407.29 83.3443,404.124 87.5,402C 94.2001,400.699 97.0334,403.532 96,410.5C 101.484,415.244 107.484,419.244 114,422.5C 116.688,419.728 119.354,417.062 122,414.5C 124.935,418.107 128.769,419.274 133.5,418C 138.215,412.584 137.048,409.084 130,407.5C 129.439,404.702 130.606,402.869 133.5,402C 137.956,401.133 142.289,401.466 146.5,403C 150.744,408.542 155.91,413.042 162,416.5C 164.893,427.506 162.559,437.173 155,445.5C 154.506,447.134 154.34,448.801 154.5,450.5C 157.011,450.162 159.345,450.162 161.5,450.5C 158.409,455.14 157.742,460.14 159.5,465.5 Z"/></g>
<g><path style="opacity:1" fill="#a0a0a0" d="M 429.5,499.5 C 426.5,499.5 423.5,499.5 420.5,499.5C 416.192,489.648 412.025,479.648 408,469.5C 406.5,467.167 405,464.833 403.5,462.5C 393.26,454.945 382.26,448.612 370.5,443.5C 369.692,443.808 369.025,444.308 368.5,445C 371.63,449.742 373.13,454.909 373,460.5C 370.86,461.728 369.193,463.395 368,465.5C 367.447,475.113 366.947,484.447 366.5,493.5C 351.167,488.167 335.833,482.833 320.5,477.5C 320.288,471.238 317.622,466.405 312.5,463C 310.479,462.86 308.645,462.693 307,462.5C 304.667,464.833 302.333,467.167 300,469.5C 298.933,468.809 297.766,468.309 296.5,468C 298.737,464.378 300.403,460.878 301.5,457.5C 301.12,455.979 300.954,454.313 301,452.5C 300.25,451.874 299.416,451.374 298.5,451C 293.191,450.655 288.025,450.489 283,450.5C 280.763,451.056 278.763,452.056 277,453.5C 276.667,453.167 276.333,452.833 276,452.5C 274.323,454.525 273.323,456.859 273,459.5C 270.779,458.594 268.612,457.594 266.5,456.5C 266.425,453.794 266.092,451.127 265.5,448.5C 265.408,444.941 266.241,441.608 268,438.5C 271.855,433.647 276.022,429.147 280.5,425C 287.548,424.27 294.548,424.603 301.5,426C 310.004,428.388 318.17,431.555 326,435.5C 333.318,432.104 340.818,430.104 348.5,429.5C 349.189,427.556 349.689,425.556 350,423.5C 356.53,413.225 363.53,412.892 371,422.5C 372.037,429.907 375.203,436.24 380.5,441.5C 392.408,448.578 403.908,456.245 415,464.5C 415.014,470.683 416.014,476.683 418,482.5C 421.06,485.952 423.06,489.952 424,494.5C 425.812,496.3 427.645,497.967 429.5,499.5 Z"/></g>
<g><path style="opacity:1" fill="#919191" d="M 159.5,465.5 C 160.177,471.028 163.01,473.695 168,473.5C 169.422,467.237 168.255,461.571 164.5,456.5C 165.693,454.616 167.359,454.116 169.5,455C 176.129,461.595 179.796,469.595 180.5,479C 178.138,484.365 174.638,488.865 170,492.5C 168.25,494.734 166.75,497.068 165.5,499.5C 161.5,499.5 157.5,499.5 153.5,499.5C 153.215,497.712 153.548,496.045 154.5,494.5C 158.286,491.767 162.286,489.267 166.5,487C 169.044,484.778 169.044,482.611 166.5,480.5C 161.663,477.998 157.33,474.832 153.5,471C 149.3,469.633 144.967,469.133 140.5,469.5C 140.367,477.647 143.701,483.814 150.5,488C 149.956,489.947 148.623,490.78 146.5,490.5C 144.019,490.187 141.853,489.187 140,487.5C 138.779,488.272 137.779,489.272 137,490.5C 136.502,493.482 136.335,496.482 136.5,499.5C 130.167,499.5 123.833,499.5 117.5,499.5C 119.771,497.734 121.937,495.734 124,493.5C 124.667,490.833 124.667,488.167 124,485.5C 117.917,485.195 111.751,485.028 105.5,485C 100.772,463.203 89.1055,446.203 70.5,434C 66.2125,432.178 61.8792,432.178 57.5,434C 50.7244,437.601 44.0577,441.434 37.5,445.5C 36.6764,448.785 36.1764,452.118 36,455.5C 31.2524,458.866 25.9191,460.866 20,461.5C 15.0383,459.638 9.87162,458.805 4.5,459C 2.97157,460.648 2.3049,462.648 2.5,465C 3.33288,469.488 3.49955,473.988 3,478.5C 2.57619,481.025 1.40953,483.025 -0.5,484.5C -0.5,473.833 -0.5,463.167 -0.5,452.5C 12.7634,443.357 27.43,438.523 43.5,438C 48.1633,434.17 52.4967,430.003 56.5,425.5C 90.1568,437.994 123.823,450.494 157.5,463C 158.066,463.995 158.733,464.828 159.5,465.5 Z"/></g>
<g><path style="opacity:1" fill="#797979" d="M 117.5,499.5 C 78.1667,499.5 38.8333,499.5 -0.5,499.5C -0.5,494.5 -0.5,489.5 -0.5,484.5C 1.40953,483.025 2.57619,481.025 3,478.5C 3.49955,473.988 3.33288,469.488 2.5,465C 2.3049,462.648 2.97157,460.648 4.5,459C 9.87162,458.805 15.0383,459.638 20,461.5C 25.9191,460.866 31.2524,458.866 36,455.5C 36.1764,452.118 36.6764,448.785 37.5,445.5C 44.0577,441.434 50.7244,437.601 57.5,434C 61.8792,432.178 66.2125,432.178 70.5,434C 89.1055,446.203 100.772,463.203 105.5,485C 111.751,485.028 117.917,485.195 124,485.5C 124.667,488.167 124.667,490.833 124,493.5C 121.937,495.734 119.771,497.734 117.5,499.5 Z"/></g>
<g><path style="opacity:1" fill="#959595" d="M 420.5,499.5 C 392.833,499.5 365.167,499.5 337.5,499.5C 333.655,494.91 328.655,492.41 322.5,492C 321.667,491.167 320.833,490.333 320,489.5C 319.313,482.042 317.979,474.709 316,467.5C 312.716,463.762 309.216,463.595 305.5,467C 300.607,471.77 299.274,477.436 301.5,484C 301.507,485.812 300.84,487.312 299.5,488.5C 296.243,489.762 293.577,491.762 291.5,494.5C 285.442,490.296 278.776,488.13 271.5,488C 270.725,491.791 270.059,495.624 269.5,499.5C 268.167,499.5 266.833,499.5 265.5,499.5C 265.382,496.312 264.549,493.312 263,490.5C 258.763,486.964 254.263,483.798 249.5,481C 252.372,478.463 254.872,475.63 257,472.5C 257.703,467.796 260.37,465.13 265,464.5C 266.079,461.937 266.579,459.271 266.5,456.5C 268.612,457.594 270.779,458.594 273,459.5C 273.323,456.859 274.323,454.525 276,452.5C 276.333,452.833 276.667,453.167 277,453.5C 278.763,452.056 280.763,451.056 283,450.5C 288.025,450.489 293.191,450.655 298.5,451C 299.416,451.374 300.25,451.874 301,452.5C 300.954,454.313 301.12,455.979 301.5,457.5C 300.403,460.878 298.737,464.378 296.5,468C 297.766,468.309 298.933,468.809 300,469.5C 302.333,467.167 304.667,464.833 307,462.5C 308.645,462.693 310.479,462.86 312.5,463C 317.622,466.405 320.288,471.238 320.5,477.5C 335.833,482.833 351.167,488.167 366.5,493.5C 366.947,484.447 367.447,475.113 368,465.5C 369.193,463.395 370.86,461.728 373,460.5C 373.13,454.909 371.63,449.742 368.5,445C 369.025,444.308 369.692,443.808 370.5,443.5C 382.26,448.612 393.26,454.945 403.5,462.5C 405,464.833 406.5,467.167 408,469.5C 412.025,479.648 416.192,489.648 420.5,499.5 Z"/></g>
<g><path style="opacity:1" fill="#aeaeae" d="M 260.5,499.5 C 238.833,499.5 217.167,499.5 195.5,499.5C 188.945,499.44 186.112,496.107 187,489.5C 193.458,485.376 198.958,480.21 203.5,474C 199.644,470.9 195.977,467.567 192.5,464C 195.5,460.333 198.5,456.667 201.5,453C 202.609,452.362 203.775,451.862 205,451.5C 212.935,454.438 217.601,460.105 219,468.5C 219.833,469.333 220.667,470.167 221.5,471C 225.601,471.589 229.434,472.755 233,474.5C 234.343,480.411 235.843,486.244 237.5,492C 240.289,491.566 242.289,489.9 243.5,487C 249.351,487.398 254.685,489.398 259.5,493C 260.423,495.041 260.756,497.208 260.5,499.5 Z"/></g>
<g><path style="opacity:1" fill="#808080" d="M 153.5,499.5 C 147.833,499.5 142.167,499.5 136.5,499.5C 136.335,496.482 136.502,493.482 137,490.5C 137.779,489.272 138.779,488.272 140,487.5C 141.853,489.187 144.019,490.187 146.5,490.5C 148.623,490.78 149.956,489.947 150.5,488C 143.701,483.814 140.367,477.647 140.5,469.5C 144.967,469.133 149.3,469.633 153.5,471C 157.33,474.832 161.663,477.998 166.5,480.5C 169.044,482.611 169.044,484.778 166.5,487C 162.286,489.267 158.286,491.767 154.5,494.5C 153.548,496.045 153.215,497.712 153.5,499.5 Z"/></g>
<g><path style="opacity:1" fill="#888888" d="M 337.5,499.5 C 314.833,499.5 292.167,499.5 269.5,499.5C 270.059,495.624 270.725,491.791 271.5,488C 278.776,488.13 285.442,490.296 291.5,494.5C 293.577,491.762 296.243,489.762 299.5,488.5C 300.84,487.312 301.507,485.812 301.5,484C 299.274,477.436 300.607,471.77 305.5,467C 309.216,463.595 312.716,463.762 316,467.5C 317.979,474.709 319.313,482.042 320,489.5C 320.833,490.333 321.667,491.167 322.5,492C 328.655,492.41 333.655,494.91 337.5,499.5 Z"/></g>
<g><path style="opacity:1" fill="#b4b4b4" d="M 486.5,499.5 C 475.833,499.5 465.167,499.5 454.5,499.5C 456.607,498.532 458.941,498.198 461.5,498.5C 460.717,494.854 460.55,491.188 461,487.5C 461.465,486.069 462.299,484.903 463.5,484C 466.5,483.333 469.5,483.333 472.5,484C 478.656,487.806 483.323,492.973 486.5,499.5 Z"/></g>
</svg>
